<?xml version="1.0" encoding="utf-8"?>
<!-- Generator: Adobe Illustrator 15.0.0, SVG Export Plug-In . SVG Version: 6.00 Build 0)  -->
<!DOCTYPE svg PUBLIC "-//W3C//DTD SVG 1.1//EN" "http://www.w3.org/Graphics/SVG/1.1/DTD/svg11.dtd">
<svg version="1.1" id="Calque_1" xmlns="http://www.w3.org/2000/svg" xmlns:xlink="http://www.w3.org/1999/xlink" x="0px" y="0px"
	 width="222.891px" height="84.116px" viewBox="0 0 222.891 84.116" enable-background="new 0 0 222.891 84.116"
	 xml:space="preserve">
<linearGradient id="SVGID_1_" gradientUnits="userSpaceOnUse" x1="0" y1="42.0581" x2="222.8906" y2="42.0581">
	<stop  offset="0" style="stop-color:#5BC0ED"/>
	<stop  offset="1" style="stop-color:#4CB6AC"/>
</linearGradient>
<path fill="url(#SVGID_1_)" d="M33.047,42.328h-16.91l-2.953,9.563H0L18.773,0.703h11.602l18.914,51.188H36.035L33.047,42.328z
	 M19.09,32.801h11.004l-5.52-17.754L19.09,32.801z M88.98,10.23H73.617v41.66h-12.34V10.23H46.195V0.703H88.98V10.23z
	 M125.93,30.164h-19.406v12.234h22.922v9.492H94.184V0.703h35.332v9.527h-22.992v10.793h19.406V30.164z M153.563,17.719
	l8.367-17.016h14.098l-14.309,25.383l14.695,25.805h-14.238l-8.613-17.332l-8.613,17.332h-14.203l14.66-25.805L131.133,0.703h14.063
	L153.563,17.719z M222.891,27.352c0,4.992-0.926,9.41-2.777,13.254c-1.852,3.845-4.482,6.803-7.893,8.877s-7.295,3.111-11.654,3.111
	s-8.227-1.002-11.602-3.006s-6.006-4.869-7.893-8.596s-2.877-8.003-2.971-12.832v-2.883c0-5.015,0.92-9.439,2.76-13.271
	s4.477-6.791,7.91-8.877C192.205,1.043,196.113,0,200.496,0c4.336,0,8.203,1.032,11.602,3.094c3.398,2.063,6.041,4.998,7.928,8.807
	c1.887,3.809,2.842,8.174,2.865,13.096V27.352z M210.34,25.207c0-5.085-0.85-8.947-2.549-11.584s-4.131-3.955-7.295-3.955
	c-6.188,0-9.457,4.641-9.809,13.922l-0.035,3.762c0,5.016,0.832,8.872,2.496,11.566c1.664,2.695,4.137,4.043,7.418,4.043
	c3.117,0,5.52-1.324,7.207-3.973c1.688-2.648,2.543-6.457,2.566-11.426V25.207z M117.006,61.804h18.397v4.096h-6.606v17.915h-5.306
	V65.899h-6.485V61.804z M141.404,69.559l-0.166-2.102h-4.777v16.357h5.095V73.459c0.454-1.009,1.481-1.512,3.084-1.512l1.679,0.12
	l0.091-4.73c-0.403-0.122-0.877-0.183-1.422-0.183C143.456,67.154,142.261,67.956,141.404,69.559z M160.679,69.294
	c1.331,1.426,1.996,3.414,1.996,5.964v1.979h-10.129c0.182,0.918,0.58,1.639,1.194,2.162s1.411,0.786,2.388,0.786
	c1.613,0,2.873-0.563,3.78-1.692l2.327,2.75c-0.634,0.877-1.533,1.575-2.697,2.095c-1.165,0.519-2.417,0.778-3.757,0.778
	c-2.51,0-4.542-0.748-6.093-2.245c-1.552-1.497-2.328-3.444-2.328-5.843v-0.423c0-1.673,0.311-3.149,0.93-4.429
	c0.621-1.28,1.525-2.271,2.714-2.971c1.188-0.701,2.601-1.052,4.233-1.052C157.534,67.154,159.349,67.868,160.679,69.294z
	 M157.686,73.655c0.021-0.816-0.188-1.449-0.619-1.897c-0.433-0.448-1.054-0.673-1.859-0.673c-1.491,0-2.379,0.988-2.661,2.963h5.14
	V73.655z M174.238,67.154c-1.984,0-3.542,0.741-4.671,2.223l-0.166-1.92h-4.776v16.357h5.094v-11.55
	c0.483-0.786,1.225-1.18,2.223-1.18c0.876,0,1.481,0.194,1.814,0.582c0.331,0.389,0.498,0.996,0.498,1.822v10.325h5.109V73.277
	c-0.03-2.046-0.466-3.578-1.308-4.597C177.214,67.663,175.942,67.154,174.238,67.154z M191.593,60.594h5.11v23.221h-4.58
	l-0.257-1.755c-1.048,1.371-2.379,2.057-3.991,2.057c-1.945,0-3.487-0.746-4.626-2.237c-1.14-1.491-1.708-3.612-1.708-6.364
	c0-2.59,0.559-4.631,1.677-6.122c1.119-1.491,2.682-2.238,4.688-2.238c1.462,0,2.69,0.575,3.688,1.724V60.594z M191.593,72.536
	c-0.463-0.968-1.259-1.451-2.388-1.451c-1.572,0-2.424,1.271-2.555,3.81l-0.017,0.938c0,2.903,0.848,4.354,2.541,4.354
	c1.129,0,1.934-0.474,2.418-1.421V72.536z M204.579,70.956c0.363-0.297,0.812-0.445,1.346-0.445c1.38,0,2.07,0.655,2.07,1.965h5.11
	c0-1.592-0.655-2.877-1.966-3.854c-1.31-0.978-3.044-1.467-5.2-1.467c-2.005,0-3.629,0.487-4.867,1.46
	c-1.239,0.972-1.859,2.209-1.859,3.711c0,0.847,0.216,1.598,0.649,2.252c0.434,0.655,1.064,1.211,1.89,1.67
	c0.826,0.459,1.874,0.83,3.144,1.112c1.271,0.282,2.132,0.554,2.586,0.815c0.453,0.262,0.681,0.609,0.681,1.043
	c0,0.454-0.174,0.822-0.522,1.104c-0.347,0.282-0.869,0.423-1.563,0.423c-0.757,0-1.376-0.174-1.86-0.521
	c-0.482-0.348-0.735-0.9-0.756-1.656h-4.762c0,0.958,0.308,1.87,0.922,2.737c0.614,0.866,1.472,1.552,2.57,2.056
	s2.348,0.756,3.749,0.756c2.106,0,3.822-0.469,5.147-1.406s1.988-2.15,1.988-3.643c0-2.188-1.23-3.704-3.689-4.551
	c-0.735-0.252-1.589-0.469-2.563-0.649c-0.972-0.183-1.681-0.413-2.123-0.695c-0.443-0.282-0.666-0.65-0.666-1.104
	C204.034,71.624,204.216,71.254,204.579,70.956z M220.617,79.589c-0.532-0.479-1.204-0.719-2.009-0.719
	c-0.816,0-1.49,0.242-2.02,0.727c-0.529,0.483-0.793,1.093-0.793,1.829c0,0.735,0.264,1.345,0.793,1.829
	c0.529,0.483,1.203,0.725,2.02,0.725c0.805,0,1.477-0.239,2.009-0.717c0.534-0.479,0.802-1.092,0.802-1.837
	C221.419,80.68,221.151,80.067,220.617,79.589z"/>
</svg>
