<?xml version="1.0" encoding="utf-8"?>
<!-- Generator: Adobe Illustrator 15.0.0, SVG Export Plug-In . SVG Version: 6.00 Build 0)  -->
<!DOCTYPE svg PUBLIC "-//W3C//DTD SVG 1.1//EN" "http://www.w3.org/Graphics/SVG/1.1/DTD/svg11.dtd">
<svg version="1.1" id="Calque_1" xmlns="http://www.w3.org/2000/svg" xmlns:xlink="http://www.w3.org/1999/xlink" x="0px" y="0px"
	 width="222.891px" height="84.117px" viewBox="0 0 222.891 84.117" enable-background="new 0 0 222.891 84.117"
	 xml:space="preserve">
<path fill="#FFFFFF" d="M33.047,42.328h-16.91l-2.953,9.563H0L18.773,0.703h11.603l18.914,51.188H36.035L33.047,42.328z
	 M19.09,32.801h11.004l-5.52-17.754L19.09,32.801z M88.98,10.23H73.617v41.66H61.277V10.23H46.195V0.703H88.98V10.23z
	 M125.93,30.164h-19.406v12.234h22.922v9.492H94.184V0.703h35.332v9.527h-22.992v10.793h19.406V30.164L125.93,30.164z
	 M153.563,17.719l8.367-17.016h14.098l-14.309,25.383l14.695,25.805h-14.238l-8.613-17.332l-8.612,17.332h-14.203l14.66-25.805
	L131.133,0.703h14.063L153.563,17.719z M222.891,27.352c0,4.992-0.926,9.41-2.776,13.254c-1.853,3.845-4.482,6.804-7.894,8.877
	c-3.411,2.074-7.295,3.11-11.654,3.11c-4.358,0-8.227-1.002-11.602-3.006s-6.006-4.869-7.894-8.595
	c-1.887-3.727-2.877-8.003-2.971-12.832v-2.883c0-5.015,0.92-9.439,2.76-13.271c1.841-3.832,4.478-6.791,7.91-8.877
	C192.205,1.043,196.113,0,200.496,0c4.336,0,8.203,1.032,11.602,3.094c3.398,2.063,6.041,4.998,7.928,8.807
	c1.888,3.809,2.843,8.174,2.865,13.096V27.352z M210.34,25.207c0-5.085-0.85-8.947-2.549-11.584
	c-1.699-2.637-4.131-3.955-7.295-3.955c-6.188,0-9.457,4.641-9.81,13.922l-0.035,3.762c0,5.016,0.832,8.872,2.496,11.566
	c1.664,2.695,4.138,4.042,7.418,4.042c3.117,0,5.521-1.323,7.207-3.973c1.688-2.648,2.543-6.457,2.566-11.426L210.34,25.207
	L210.34,25.207z M117.006,61.804h18.396V65.9h-6.605v17.915h-5.306V65.899h-6.485V61.804z M141.404,69.559l-0.166-2.103h-4.776
	v16.357h5.095V73.458c0.454-1.008,1.481-1.512,3.084-1.512l1.679,0.12l0.092-4.729c-0.403-0.123-0.877-0.184-1.423-0.184
	C143.456,67.154,142.261,67.957,141.404,69.559z M160.679,69.294c1.331,1.426,1.996,3.414,1.996,5.963v1.979h-10.129
	c0.182,0.918,0.58,1.64,1.194,2.162c0.613,0.522,1.41,0.786,2.388,0.786c1.613,0,2.873-0.563,3.78-1.691l2.326,2.75
	c-0.634,0.877-1.532,1.574-2.696,2.094c-1.165,0.52-2.417,0.779-3.758,0.779c-2.51,0-4.542-0.748-6.093-2.246
	c-1.552-1.496-2.328-3.443-2.328-5.843v-0.423c0-1.673,0.312-3.148,0.931-4.43c0.621-1.279,1.524-2.27,2.714-2.971
	c1.188-0.701,2.601-1.052,4.232-1.052C157.534,67.154,159.349,67.869,160.679,69.294z M157.686,73.656
	c0.021-0.816-0.188-1.449-0.619-1.898c-0.433-0.447-1.054-0.672-1.858-0.672c-1.491,0-2.379,0.988-2.661,2.963h5.14L157.686,73.656
	L157.686,73.656z M174.238,67.154c-1.983,0-3.542,0.741-4.671,2.223l-0.166-1.92h-4.775v16.357h5.094v-11.55
	c0.483-0.786,1.225-1.181,2.223-1.181c0.876,0,1.481,0.194,1.814,0.582c0.331,0.39,0.498,0.996,0.498,1.822v10.325h5.108V73.277
	c-0.029-2.046-0.466-3.578-1.308-4.597C177.214,67.664,175.942,67.154,174.238,67.154z M191.593,60.593h5.11v23.222h-4.58
	l-0.257-1.755c-1.049,1.371-2.38,2.057-3.991,2.057c-1.945,0-3.487-0.746-4.626-2.236c-1.141-1.491-1.708-3.612-1.708-6.364
	c0-2.591,0.559-4.632,1.677-6.122c1.119-1.491,2.682-2.238,4.688-2.238c1.462,0,2.689,0.575,3.688,1.725L191.593,60.593
	L191.593,60.593z M191.593,72.537c-0.463-0.969-1.259-1.451-2.388-1.451c-1.572,0-2.424,1.271-2.556,3.81l-0.017,0.938
	c0,2.902,0.848,4.354,2.541,4.354c1.129,0,1.934-0.475,2.418-1.421L191.593,72.537L191.593,72.537z M204.579,70.957
	c0.362-0.297,0.812-0.445,1.346-0.445c1.38,0,2.07,0.654,2.07,1.965h5.109c0-1.592-0.654-2.877-1.966-3.854
	c-1.31-0.979-3.044-1.468-5.2-1.468c-2.005,0-3.629,0.487-4.867,1.46s-1.858,2.209-1.858,3.711c0,0.848,0.216,1.598,0.648,2.252
	c0.435,0.655,1.064,1.211,1.891,1.67s1.874,0.83,3.144,1.112c1.271,0.282,2.132,0.554,2.586,0.815
	c0.453,0.262,0.682,0.609,0.682,1.043c0,0.453-0.175,0.822-0.522,1.104c-0.347,0.282-0.869,0.424-1.563,0.424
	c-0.758,0-1.376-0.175-1.86-0.521c-0.482-0.348-0.735-0.9-0.756-1.656H198.7c0,0.958,0.308,1.87,0.922,2.737
	c0.613,0.866,1.472,1.552,2.569,2.056c1.099,0.504,2.349,0.756,3.749,0.756c2.106,0,3.822-0.469,5.147-1.406
	c1.325-0.937,1.988-2.149,1.988-3.643c0-2.188-1.23-3.704-3.689-4.551c-0.735-0.252-1.589-0.469-2.563-0.648
	c-0.973-0.184-1.682-0.414-2.123-0.695c-0.443-0.282-0.666-0.65-0.666-1.104C204.034,71.625,204.216,71.253,204.579,70.957z
	 M220.617,79.589c-0.532-0.479-1.204-0.719-2.01-0.719c-0.815,0-1.489,0.241-2.02,0.727c-0.529,0.482-0.793,1.093-0.793,1.828
	c0,0.736,0.264,1.346,0.793,1.83c0.529,0.482,1.203,0.725,2.02,0.725c0.806,0,1.478-0.238,2.01-0.717
	c0.533-0.479,0.802-1.092,0.802-1.838C221.419,80.68,221.151,80.067,220.617,79.589z"/>
</svg>
