<?xml version="1.0" encoding="utf-8"?>
<!-- Generator: Adobe Illustrator 15.0.0, SVG Export Plug-In . SVG Version: 6.00 Build 0)  -->
<!DOCTYPE svg PUBLIC "-//W3C//DTD SVG 1.1//EN" "http://www.w3.org/Graphics/SVG/1.1/DTD/svg11.dtd">
<svg version="1.1" id="Calque_1" xmlns="http://www.w3.org/2000/svg" xmlns:xlink="http://www.w3.org/1999/xlink" x="0px" y="0px"
	 width="77.179px" height="85.04px" viewBox="0 0 77.179 85.04" enable-background="new 0 0 77.179 85.04" xml:space="preserve">
<linearGradient id="SVGID_1_" gradientUnits="userSpaceOnUse" x1="0" y1="42.52" x2="77.1792" y2="42.52">
	<stop  offset="0" style="stop-color:#5DC0ED"/>
	<stop  offset="1" style="stop-color:#4DB6AC"/>
</linearGradient>
<path fill="url(#SVGID_1_)" d="M47.959,79.601c0,3.003-2.436,5.438-5.438,5.438H0V42.517c0-3.003,2.435-5.438,5.438-5.438h37.083
	c3.003,0,5.438,2.436,5.438,5.438V79.601z M63.007,25.017c0-1.648-1.337-2.986-2.987-2.986H39.661c-1.649,0-2.985,1.338-2.985,2.986
	v23.346H60.02c1.65,0,2.987-1.337,2.987-2.986V25.017z M44.575,10.74c0-1.036-0.84-1.876-1.877-1.876H29.9
	c-1.036,0-1.877,0.841-1.877,1.876v14.676h14.675c1.037,0,1.877-0.841,1.877-1.877V10.74z M77.179,14.852
	c0-0.745-0.605-1.351-1.352-1.351h-9.213c-0.746,0-1.351,0.606-1.351,1.351v10.564h10.563c0.746,0,1.352-0.604,1.352-1.351V14.852z
	 M62.07,4.879c0-0.45-0.364-0.815-0.814-0.815h-5.551c-0.449,0-0.814,0.365-0.814,0.815v6.365h6.365c0.45,0,0.814-0.364,0.814-0.813
	V4.879z M77.179,0.425c0-0.234-0.19-0.425-0.426-0.425h-2.897c-0.234,0-0.424,0.191-0.424,0.425v3.321h3.321
	c0.235,0,0.426-0.19,0.426-0.424V0.425z M73.165,55.435c0-1.272-1.032-2.305-2.305-2.305H55.154c-1.271,0-2.303,1.032-2.303,2.305
	v18.01H70.86c1.272,0,2.305-1.031,2.305-2.304V55.435z"/>
</svg>
