<?xml version="1.0" encoding="utf-8"?>
<!-- Generator: Adobe Illustrator 15.0.0, SVG Export Plug-In . SVG Version: 6.00 Build 0)  -->
<!DOCTYPE svg PUBLIC "-//W3C//DTD SVG 1.1//EN" "http://www.w3.org/Graphics/SVG/1.1/DTD/svg11.dtd">
<svg version="1.1" id="Calque_1" xmlns="http://www.w3.org/2000/svg" xmlns:xlink="http://www.w3.org/1999/xlink" x="0px" y="0px"
	 width="6.371px" height="7.282px" viewBox="0 0 6.371 7.282" enable-background="new 0 0 6.371 7.282" xml:space="preserve">
<path id="XMLID_56_" fill="#FFFFFF" d="M0,1.823V5.46l3.17,1.822L6.371,5.46V2.258V1.823L3.159,0L0,1.823z"/>
<g>
	<g>
		<path fill="#E92530" d="M2.227,1.76L2.227,1.76L2.227,1.76z"/>
	</g>
	<path id="XMLID_49_" fill="#2E6AB3" d="M3.117,6.498L0.71,5.109C0.679,5.099,0.657,5.057,0.657,5.024V2.29
		c0-0.032,0.021-0.074,0.053-0.084l2.417-1.399"/>
	<path id="XMLID_48_" fill="#335BAA" d="M3.127,6.509L2.078,5.905C2.067,5.894,2.057,5.884,2.057,5.873V4.718
		c0-0.012,0.011-0.032,0.021-0.032l1.049-0.615"/>
	<g>
		<path id="XMLID_34_" fill="#0751A0" d="M0.657,5.024V2.29c0-0.032,0.021-0.074,0.053-0.084l2.417-1.399"/>
	</g>
	<g>
		<polygon fill="#335BAA" points="0.721,2.194 1.463,3.689 2.311,2.205 1.59,1.686 		"/>
	</g>
	<g>
		<path fill="#E92530" d="M4.018,1.76L4.018,1.76L4.018,1.76z"/>
	</g>
	<g>
		<path id="XMLID_33_" fill="#0751A0" d="M3.127,6.498l2.406-1.389c0.032-0.021,0.054-0.053,0.054-0.085V2.29
			c0-0.032-0.021-0.074-0.054-0.084L3.127,0.806"/>
	</g>
	<g>
		<path id="XMLID_1_" fill="#1765AA" d="M5.587,5.035L5.598,2.29c0-0.032-0.021-0.074-0.053-0.084L3.127,0.806"/>
	</g>
	<g>
		<polygon fill="#335BAA" points="5.523,2.194 4.791,3.668 3.933,2.184 4.643,1.686 		"/>
	</g>
</g>
<path fill="#FFFFFF" d="M4.074,3.196H3.984V2.931c0-0.441-0.358-0.8-0.799-0.8s-0.8,0.358-0.8,0.8v0.266H2.297
	c-0.147,0-0.267,0.12-0.267,0.267v1.422c0,0.146,0.12,0.267,0.267,0.267h1.776c0.147,0,0.267-0.12,0.267-0.267V3.463
	C4.34,3.316,4.221,3.196,4.074,3.196z M2.564,2.931c0-0.343,0.279-0.622,0.622-0.622s0.622,0.279,0.622,0.622v0.266H2.564V2.931z
	 M4.163,4.885c0,0.049-0.041,0.089-0.089,0.089H2.297c-0.049,0-0.089-0.04-0.089-0.089V3.463c0-0.049,0.041-0.088,0.089-0.088h1.776
	c0.049,0,0.089,0.039,0.089,0.088V4.885z"/>
</svg>
