<?xml version="1.0" encoding="utf-8"?>
<!-- Generator: Adobe Illustrator 15.0.0, SVG Export Plug-In . SVG Version: 6.00 Build 0)  -->
<!DOCTYPE svg PUBLIC "-//W3C//DTD SVG 1.1//EN" "http://www.w3.org/Graphics/SVG/1.1/DTD/svg11.dtd">
<svg version="1.1" id="Calque_1" xmlns="http://www.w3.org/2000/svg" xmlns:xlink="http://www.w3.org/1999/xlink" x="0px" y="0px"
	 width="6.371px" height="7.282px" viewBox="0 0 6.371 7.282" enable-background="new 0 0 6.371 7.282" xml:space="preserve">
<path id="XMLID_56_" fill="#FFFFFF" d="M0,1.823V5.46l3.17,1.822L6.371,5.46V2.258V1.823L3.159,0L0,1.823z"/>
<g>
	<g>
		<path fill="#E92530" d="M2.227,1.76L2.227,1.76L2.227,1.76z"/>
	</g>
	<path id="XMLID_49_" fill="#2E6AB3" d="M3.117,6.498L0.71,5.109C0.679,5.099,0.657,5.057,0.657,5.024V2.29
		c0-0.032,0.021-0.074,0.053-0.084l2.417-1.399"/>
	<path id="XMLID_48_" fill="#EC2227" d="M3.127,6.509L2.078,5.905C2.067,5.894,2.057,5.884,2.057,5.873V4.718
		c0-0.012,0.011-0.032,0.021-0.032l1.049-0.615"/>
	<g>
		<path id="XMLID_34_" fill="#0751A0" d="M0.657,5.024V2.29c0-0.032,0.021-0.074,0.053-0.084l2.417-1.399"/>
	</g>
	<g>
		<polygon fill="#EC2227" points="0.721,2.194 1.463,3.689 2.311,2.205 1.59,1.686 		"/>
	</g>
	<g>
		<path fill="#E92530" d="M4.018,1.76L4.018,1.76L4.018,1.76z"/>
	</g>
	<g>
		<path id="XMLID_33_" fill="#0751A0" d="M3.127,6.498l2.406-1.389c0.032-0.021,0.054-0.053,0.054-0.085V2.29
			c0-0.032-0.021-0.074-0.054-0.084L3.127,0.806"/>
	</g>
	<g>
		<path id="XMLID_1_" fill="#EC2227" d="M5.587,5.035L5.598,2.29c0-0.032-0.021-0.074-0.053-0.084L3.127,0.806"/>
	</g>
	<g>
		<polygon fill="#335BAA" points="5.523,2.194 4.791,3.668 3.933,2.184 4.643,1.686 		"/>
	</g>
	<path fill="#FFFFFF" d="M3.668,5.555C3.7,5.534,3.742,5.534,3.774,5.522c0.127,0,0.265,0.032,0.393,0.043
		c0.01,0,0.032,0.011,0.042,0.011c0.042,0.011,0.106,0,0.148-0.011C4.41,5.544,4.474,5.513,4.495,5.448
		c0.021-0.053,0.032-0.116,0-0.169C4.442,5.216,4.537,5.184,4.569,5.142C4.59,5.099,4.548,5.077,4.548,5.046
		C4.537,5.035,4.505,5.035,4.495,5.015C4.548,4.993,4.633,4.94,4.59,4.876C4.569,4.834,4.527,4.78,4.569,4.738
		c0.053-0.032,0.138-0.032,0.159-0.085C4.76,4.558,4.676,4.484,4.633,4.41C4.611,4.368,4.58,4.336,4.548,4.293
		C4.516,4.24,4.474,4.198,4.463,4.134c-0.021-0.063,0-0.117,0-0.18c0-0.117-0.032-0.233-0.063-0.35
		c-0.021-0.053-0.032-0.117-0.063-0.17C4.325,3.403,4.315,3.371,4.293,3.339c-0.011-0.011-0.011-0.042,0-0.053
		c0.032-0.021,0.063-0.053,0.095-0.084c0.021-0.042,0-0.096-0.032-0.117C4.304,3.063,4.315,3.138,4.272,3.159
		c-0.011,0-0.011,0-0.021,0c-0.01-0.021,0.011-0.032,0.021-0.042c0-0.011,0-0.021-0.011-0.021c-0.032,0-0.063-0.01-0.074-0.021
		C4.103,2.968,3.997,2.915,3.88,2.873c0.032,0.01,0.064,0.01,0.096,0.01c0.053,0.011,0.117,0,0.159-0.021
		c0.042-0.021,0.042-0.074,0.064-0.117c0.01-0.032-0.011-0.074-0.021-0.095C4.134,2.597,3.509,1.908,2.131,2.576l0,0
		c-0.053,0.021-0.18,0.084-0.244,0.159S1.771,2.894,1.75,2.989C1.654,3.053,1.59,3.148,1.537,3.244
		C1.474,3.382,1.378,3.498,1.389,3.646C1.41,3.774,1.442,3.891,1.474,4.018C1.484,4.06,1.495,4.103,1.505,4.145
		c0.021,0.042,0,0.106,0.032,0.138C1.559,4.304,1.548,4.336,1.58,4.346c0,0.011,0,0.021,0,0.032C1.59,4.389,1.59,4.389,1.601,4.389
		c0,0.011,0,0.021,0,0.032c0.063,0.074,0.148,0.148,0.18,0.223c0.021,0.042-0.074,0.021-0.117,0.01
		C1.59,4.622,1.537,4.558,1.474,4.505L1.463,4.517c0.032,0.053,0.148,0.115,0.085,0.158C1.516,4.696,1.474,4.653,1.453,4.686
		c-0.011,0.011,0,0.032,0,0.042C1.41,4.696,1.357,4.718,1.315,4.696C1.283,4.686,1.272,4.632,1.241,4.632
		C1.134,4.611,1.05,4.591,0.944,4.591c-0.138-0.012-0.276-0.033-0.414,0c-0.127,0.01-0.212,0.105-0.286,0.201
		c0,0.01,0,0.021,0,0.021C0.297,4.823,0.318,4.771,0.371,4.76C0.445,4.738,0.52,4.706,0.594,4.696
		C0.71,4.675,0.816,4.632,0.922,4.644c0.021,0,0.053-0.012,0.074,0c-0.138,0-0.265,0.042-0.392,0.084
		C0.509,4.76,0.424,4.76,0.339,4.813c0.202-0.011,0.403,0.011,0.604,0.074C1.018,4.908,1.082,4.94,1.145,4.972
		c0.032,0.021,0.053,0.043,0.074,0.063c0.042,0.021,0.096,0.021,0.127,0c0.01,0,0.032,0,0.042,0
		c0.116-0.032,0.244-0.063,0.318-0.159c0,0.011,0.01,0.011,0.01,0.011C1.696,4.95,1.696,5.015,1.654,5.077
		c0,0.012-0.011,0.021,0.011,0.032c0.011,0,0.011,0,0.011,0c-0.011,0-0.011,0-0.011,0.011s0.021,0,0.032,0.011
		C1.654,5.142,1.622,5.151,1.601,5.184c0,0.011,0.01,0.011,0.021,0.011C1.611,5.216,1.58,5.205,1.58,5.216l0.011,0.01
		c-0.011,0-0.011,0-0.011,0.012c0,0.01,0,0.01,0,0.021c-0.021,0-0.032,0.021-0.042,0.021c0.032,0.021,0.053,0,0.085,0
		C1.537,5.312,1.474,5.364,1.389,5.386c-0.011,0,0,0.021-0.011,0.021c0.021,0.011,0.042-0.011,0.063-0.011
		C1.336,5.46,1.23,5.522,1.113,5.587c0,0-0.011,0.021-0.011,0.031c-0.01,0-0.021,0-0.032,0C1.06,5.629,1.06,5.65,1.05,5.661
		c0.042,0.021,0.084-0.032,0.106,0c0.011,0-0.011,0.01-0.032,0.01c-0.011,0-0.011,0.012-0.011,0.021c-0.011,0-0.011,0-0.021,0
		C1.082,5.714,1.06,5.714,1.06,5.735c-0.01,0-0.032,0-0.042,0.021c0.169-0.032,0.35-0.021,0.509-0.106
		C1.654,5.587,1.76,5.491,1.866,5.386l0.011,0.01C1.855,5.47,1.813,5.534,1.75,5.576C1.707,5.597,1.675,5.64,1.633,5.661
		C1.611,5.683,1.59,5.692,1.569,5.714C1.304,5.819,1.208,5.968,1.315,5.958c0.063,0,0.127,0,0.19-0.011
		c0.042-0.011,0.096-0.042,0.138-0.054c0,0.012,0,0.012,0,0.012C1.76,5.852,1.845,5.757,1.961,5.714
		c0.011,0,0.021,0.011,0.042,0.011c0.063-0.063,0.148-0.138,0.244-0.128c0,0.012,0,0.012,0.011,0.012c0,0,0,0,0.01,0
		c0,0,0.011,0,0.011-0.012c0,0.012,0,0.012-0.011,0.012C2.237,5.629,2.216,5.65,2.184,5.671c-0.011,0.012,0,0.012,0.01,0.012
		C2.237,5.661,2.258,5.629,2.29,5.618C2.279,5.629,2.279,5.64,2.279,5.65C2.142,5.757,2.046,5.873,1.94,6l1.018,0.636
		C2.916,6.552,3.53,5.683,3.668,5.555z M4.018,3.901c0.042-0.01,0.074-0.032,0.116-0.032c0.042-0.01,0.096-0.021,0.127-0.01
		c0.042,0.01,0.106,0.01,0.106,0.032c0.021,0.042-0.021,0.095-0.063,0.127C4.293,4.028,4.325,4.039,4.325,4.06
		c-0.01,0.011-0.032,0.021-0.042,0.021c-0.01,0.011-0.032,0.032-0.042,0.053c0.01,0,0,0.021,0.021,0.021
		C4.23,4.198,4.283,4.272,4.23,4.293c-0.053,0.021-0.117,0.021-0.18,0c0.032-0.011,0.074,0.01,0.095-0.021c0-0.01,0-0.021,0-0.032
		S4.134,4.229,4.134,4.229C4.124,4.24,4.124,4.24,4.124,4.24c0-0.011-0.021-0.032-0.021-0.032C4.06,4.219,4.018,4.198,3.986,4.166
		C4.007,4.155,4.028,4.145,4.06,4.155c0.021,0,0.011-0.042,0.042-0.053c0.011,0,0.011,0,0.021,0
		c0.042-0.063,0.138-0.085,0.148-0.148c0-0.011-0.042-0.011-0.074-0.021c-0.042-0.011-0.085,0-0.127,0
		C4.007,3.954,3.954,3.954,3.901,3.986C3.912,3.943,3.965,3.912,4.018,3.901z"/>
</g>
</svg>
