<?xml version="1.0" encoding="utf-8"?>
<!-- Generator: Adobe Illustrator 15.0.0, SVG Export Plug-In . SVG Version: 6.00 Build 0)  -->
<!DOCTYPE svg PUBLIC "-//W3C//DTD SVG 1.1//EN" "http://www.w3.org/Graphics/SVG/1.1/DTD/svg11.dtd">
<svg version="1.1" id="Calque_1" xmlns="http://www.w3.org/2000/svg" xmlns:xlink="http://www.w3.org/1999/xlink" x="0px" y="0px"
	 width="242.824px" height="54.704px" viewBox="0 0 242.824 54.704" enable-background="new 0 0 242.824 54.704"
	 xml:space="preserve">
<linearGradient id="SVGID_1_" gradientUnits="userSpaceOnUse" x1="0" y1="27.3516" x2="242.8242" y2="27.3516">
	<stop  offset="0" style="stop-color:#5BC0ED"/>
	<stop  offset="1" style="stop-color:#4CB6AC"/>
</linearGradient>
<path fill="url(#SVGID_1_)" d="M0,2.813h42.785v9.527H27.422V54h-12.34V12.34H0V2.813z M56.742,20.848l-0.387-4.887H45.246V54
	h11.848V29.918c1.055-2.344,3.445-3.516,7.172-3.516l3.902,0.281l0.211-11.004c-0.938-0.281-2.039-0.422-3.305-0.422
	C61.511,15.258,58.733,17.122,56.742,20.848z M101.566,20.233c3.094,3.316,4.641,7.939,4.641,13.869v4.605H82.652
	c0.422,2.133,1.348,3.809,2.777,5.027c1.429,1.219,3.281,1.828,5.555,1.828c3.749,0,6.68-1.313,8.789-3.938l5.414,6.398
	c-1.477,2.039-3.568,3.662-6.275,4.869s-5.62,1.811-8.736,1.811c-5.836,0-10.56-1.74-14.168-5.221
	c-3.609-3.48-5.414-8.01-5.414-13.588v-0.984c0-3.891,0.721-7.324,2.162-10.301s3.545-5.279,6.311-6.908
	c2.765-1.629,6.047-2.444,9.844-2.444C94.254,15.258,98.473,16.917,101.566,20.233z M94.605,30.375
	c0.047-1.898-0.435-3.369-1.441-4.412c-1.008-1.043-2.449-1.564-4.324-1.564c-3.469,0-5.532,2.297-6.188,6.891h11.953V30.375z
	 M133.102,15.258c-4.618,0-8.239,1.723-10.863,5.168l-0.387-4.465h-11.109V54h11.848V27.141c1.125-1.828,2.848-2.742,5.168-2.742
	c2.039,0,3.445,0.451,4.219,1.354s1.16,2.314,1.16,4.236V54h11.883V29.497c-0.07-4.758-1.084-8.32-3.041-10.688
	C140.021,16.441,137.063,15.258,133.102,15.258z M173.461,0h11.883v54h-10.652l-0.598-4.078c-2.438,3.188-5.531,4.781-9.281,4.781
	c-4.523,0-8.109-1.734-10.758-5.203s-3.973-8.402-3.973-14.801c0-6.023,1.301-10.77,3.902-14.238s6.234-5.204,10.898-5.204
	c3.398,0,6.258,1.336,8.578,4.008V0z M173.461,27.774c-1.078-2.25-2.93-3.375-5.555-3.375c-3.656,0-5.637,2.953-5.941,8.859
	l-0.035,2.18c0,6.75,1.969,10.125,5.906,10.125c2.625,0,4.5-1.102,5.625-3.305V27.774z M203.66,24.1
	c0.844-0.691,1.887-1.037,3.129-1.037c3.211,0,4.816,1.523,4.816,4.57h11.883c0-3.703-1.523-6.691-4.57-8.965
	s-7.078-3.411-12.094-3.411c-4.664,0-8.438,1.131-11.32,3.393c-2.883,2.262-4.324,5.139-4.324,8.631
	c0,1.969,0.504,3.715,1.512,5.238s2.473,2.818,4.395,3.885s4.359,1.928,7.313,2.584s4.957,1.289,6.012,1.898
	s1.582,1.418,1.582,2.426c0,1.055-0.404,1.91-1.213,2.566s-2.021,0.984-3.639,0.984c-1.758,0-3.199-0.404-4.324-1.213
	s-1.711-2.092-1.758-3.85h-11.074c0,2.227,0.715,4.348,2.145,6.363s3.422,3.609,5.977,4.781s5.461,1.758,8.719,1.758
	c4.898,0,8.889-1.09,11.971-3.27s4.623-5.004,4.623-8.473c0-5.086-2.859-8.613-8.578-10.582c-1.711-0.586-3.697-1.09-5.959-1.512
	s-3.908-0.961-4.939-1.617s-1.547-1.512-1.547-2.566C202.395,25.653,202.816,24.792,203.66,24.1z M240.961,44.174
	c-1.242-1.113-2.801-1.67-4.676-1.67c-1.898,0-3.463,0.563-4.693,1.688s-1.846,2.543-1.846,4.254s0.615,3.129,1.846,4.254
	s2.795,1.688,4.693,1.688c1.875,0,3.434-0.557,4.676-1.67s1.863-2.537,1.863-4.271S242.203,45.288,240.961,44.174z"/>
</svg>
