<?xml version="1.0" encoding="utf-8"?>
<!-- Generator: Adobe Illustrator 15.0.0, SVG Export Plug-In . SVG Version: 6.00 Build 0)  -->
<!DOCTYPE svg PUBLIC "-//W3C//DTD SVG 1.1//EN" "http://www.w3.org/Graphics/SVG/1.1/DTD/svg11.dtd">
<svg version="1.1" id="Calque_1" xmlns="http://www.w3.org/2000/svg" xmlns:xlink="http://www.w3.org/1999/xlink" x="0px" y="0px"
	 width="120.596px" height="30px" viewBox="0 0 120.596 30" enable-background="new 0 0 120.596 30" xml:space="preserve">
<linearGradient id="SVGID_1_" gradientUnits="userSpaceOnUse" x1="0" y1="15" x2="120.5957" y2="15">
	<stop  offset="0" style="stop-color:#5DC0ED"/>
	<stop  offset="1" style="stop-color:#4DB6AC"/>
</linearGradient>
<path fill="url(#SVGID_1_)" d="M15.825,25.084H7.727l-1.414,4.58H0L8.989,5.151h5.556l9.057,24.513h-6.347L15.825,25.084z
	 M9.141,20.521h5.269l-2.643-8.501L9.141,20.521z M42.609,9.714h-7.357v19.95h-5.909V9.714h-7.222V5.151h20.488V9.714z
	 M60.302,19.259h-9.292v5.858h10.976v4.547H45.1V5.151H62.02v4.563h-11.01v5.168h9.292V19.259z M73.535,13.3l4.007-8.148h6.75
	L77.44,17.307l7.037,12.357h-6.818l-4.124-8.3l-4.125,8.3h-6.801l7.019-12.357L62.794,5.151h6.734L73.535,13.3z M106.732,17.913
	c0,2.39-0.443,4.506-1.33,6.347c-0.887,1.84-2.146,3.258-3.779,4.25C99.989,29.504,98.13,30,96.043,30
	c-2.088,0-3.94-0.479-5.557-1.439s-2.876-2.332-3.779-4.116c-0.902-1.785-1.378-3.832-1.422-6.145v-1.381
	c0-2.401,0.44-4.52,1.321-6.355c0.882-1.835,2.144-3.252,3.788-4.251c1.644-0.999,3.516-1.498,5.614-1.498
	c2.076,0,3.928,0.494,5.556,1.481c1.626,0.988,2.893,2.394,3.796,4.217c0.902,1.824,1.361,3.915,1.372,6.271V17.913z
	 M100.723,16.886c0-2.436-0.407-4.285-1.221-5.547c-0.814-1.263-1.979-1.894-3.493-1.894c-2.964,0-4.528,2.222-4.697,6.667
	l-0.017,1.802c0,2.401,0.399,4.248,1.195,5.538c0.797,1.29,1.981,1.936,3.553,1.936c1.492,0,2.643-0.634,3.45-1.902
	c0.808-1.268,1.219-3.092,1.229-5.471V16.886z M108.645,6.288c0-1.133,0.262-2.186,0.786-3.156c0.524-0.971,1.251-1.736,2.181-2.294
	C112.539,0.279,113.543,0,114.62,0s2.08,0.279,3.009,0.838c0.928,0.558,1.656,1.323,2.18,2.294c0.525,0.97,0.787,2.023,0.787,3.156
	c0,1.145-0.266,2.204-0.799,3.177c-0.534,0.974-1.262,1.738-2.185,2.294c-0.924,0.556-1.92,0.833-2.992,0.833
	c-1.083,0-2.087-0.28-3.009-0.841c-0.924-0.562-1.648-1.327-2.176-2.298C108.908,8.482,108.645,7.427,108.645,6.288z M109.67,6.288
	c0,0.926,0.21,1.79,0.628,2.592c0.418,0.803,1.011,1.447,1.78,1.932c0.768,0.485,1.616,0.729,2.542,0.729
	c0.921,0,1.764-0.242,2.529-0.724c0.767-0.483,1.36-1.125,1.78-1.928c0.421-0.802,0.631-1.669,0.631-2.601s-0.21-1.797-0.631-2.597
	c-0.42-0.8-1.016-1.439-1.784-1.919c-0.77-0.479-1.611-0.719-2.525-0.719c-0.892,0-1.722,0.229-2.488,0.689
	c-0.766,0.46-1.367,1.095-1.805,1.903S109.67,5.334,109.67,6.288z M117.322,7.408c0,0.853-0.245,1.506-0.737,1.961
	c-0.49,0.454-1.186,0.681-2.082,0.681c-0.899,0-1.613-0.298-2.143-0.896c-0.531-0.597-0.796-1.401-0.796-2.412V5.792
	c0-0.977,0.269-1.764,0.804-2.361c0.536-0.598,1.247-0.896,2.135-0.896c0.913,0,1.614,0.231,2.099,0.694
	c0.485,0.463,0.729,1.113,0.729,1.949h-1.313c0-0.539-0.13-0.925-0.388-1.157c-0.257-0.233-0.634-0.349-1.127-0.349
	c-0.518,0-0.917,0.189-1.2,0.568s-0.428,0.885-0.434,1.52v1.035c0,0.657,0.143,1.174,0.43,1.553
	c0.286,0.378,0.687,0.568,1.204,0.568c0.498,0,0.875-0.113,1.127-0.341c0.253-0.227,0.379-0.616,0.379-1.166H117.322z"/>
</svg>
