<?xml version="1.0" encoding="utf-8"?>
<!-- Generator: Adobe Illustrator 15.0.0, SVG Export Plug-In . SVG Version: 6.00 Build 0)  -->
<!DOCTYPE svg PUBLIC "-//W3C//DTD SVG 1.1//EN" "http://www.w3.org/Graphics/SVG/1.1/DTD/svg11.dtd">
<svg version="1.1" id="Calque_1" xmlns="http://www.w3.org/2000/svg" xmlns:xlink="http://www.w3.org/1999/xlink" x="0px" y="0px"
	 width="1538px" height="906px" viewBox="0 0 1538 906" enable-background="new 0 0 1538 906" xml:space="preserve">
<g>
	<g>
		<path id="path8" inkscape:connector-curvature="0" fill="#010101" d="M1228.368,905.421c-0.85-0.346-0.901-1.272-0.188-3.317
			c0.903-2.591,1.319-2.793,4.791-2.327c3.148,0.422,4.075,0.12,5.391-1.759c2.53-3.611,0.577-6.217-4.014-5.355
			c-3.521,0.66-3.575,0.621-2.897-2.082c2.154-8.582,2.359-8.109-4.06-9.383c-7.642-1.515-14.952-5.795-20.568-12.041
			c-8.432-9.379-11.356-18.866-10.516-34.117c0.428-7.77,1.09-10.799,3.54-16.201c7.496-16.535,24.621-24.966,47.638-23.455
			c4.983,0.327,11.311,1.175,14.061,1.886l5,1.29l0.288,9.25l0.287,9.25h-3.037c-1.792,0-3.038-0.521-3.038-1.271
			c0-2.598-6.123-8.61-10.454-10.264c-5.59-2.135-16.434-1.648-21.866,0.981c-12.416,6.01-18.077,21.609-14.302,39.413
			c1.754,8.272,4.651,13.821,10.191,19.516c5.251,5.397,10.549,7.577,18.485,7.604c8.394,0.028,14.271-3.345,17.967-10.313
			c2.511-4.733,3.407-5.314,5.829-3.779c1.128,0.715,1.139,2.36,0.063,9.955l-1.288,9.098l-4.563,1.577
			c-2.51,0.867-8.275,1.848-12.813,2.179c-7.823,0.571-8.25,0.724-8.25,2.954c0,1.78,0.554,2.351,2.277,2.351
			c3.34,0,6.473,2.587,7.213,5.955c0.859,3.913-1.926,9.702-5.575,11.589C1241.32,905.968,1231.032,906.508,1228.368,905.421
			L1228.368,905.421z M633.406,901.212c-8.657-2.552-16.123-6.401-25.104-12.944l-7.758-5.652l-12-0.615
			c-13.306-0.683-17.954-2.168-26.562-8.486c-18.961-13.919-19.649-49.337-1.294-66.576c13.817-12.978,38.127-15.659,55.624-6.136
			c23.623,12.857,26.131,50.785,4.672,70.652c-3.33,3.083-6.591,5.606-7.247,5.609c-2.044,0.007,21.456,12.861,28.328,15.496
			c7.592,2.91,16.462,3.299,22.959,1.006c4.728-1.667,5.535-1.468,6.328,1.565c0.464,1.772-0.346,2.519-5.129,4.733
			C658.684,903.356,642.882,904.006,633.406,901.212L633.406,901.212z M604.083,870.308c16.745-8.747,19.933-36.761,6.219-54.649
			c-12.709-16.579-34.983-14.069-43.355,4.885c-7.564,17.125,1.065,43.602,16.498,50.609
			C589.689,873.989,597.661,873.663,604.083,870.308z M78.545,880.671c-4.593-2.004-9.632-8.24-17.595-21.773
			c-12.234-20.792-14.527-23.839-17.942-23.839h-2.963l0.021,11.25c0.036,20.533,2.102,27.561,8.574,29.185
			c1.732,0.435,2.405,1.299,2.405,3.085v2.48h-20.5h-20.5v-2.354c0-1.784,0.765-2.575,3.148-3.259
			c1.731-0.496,4.094-2.17,5.25-3.719c2.052-2.748,2.102-3.748,2.102-41.669s-0.05-38.92-2.102-41.668
			c-1.156-1.548-3.519-3.221-5.25-3.717c-2.301-0.66-3.148-1.494-3.148-3.098c0-2.186,0.113-2.198,25.399-2.849
			c26.912-0.693,32.844-0.181,40.43,3.491c6.627,3.208,12.15,12.929,12.166,21.41c0.018,9.709-7.203,20.675-16.732,25.409
			l-4.987,2.478l11.024,16.522c12.969,19.438,17.041,24.63,20.873,26.611c3.576,1.85,3.92,5.885,0.577,6.78
			C94.772,882.507,81.623,882.015,78.545,880.671L78.545,880.671z M53.522,824.943c13.406-3.722,17.93-22.351,7.785-32.053
			c-4.77-4.561-9.834-6.216-16.297-5.327l-4.966,0.684v18.905v18.906l4.75-0.006C47.407,826.05,51.335,825.551,53.522,824.943
			L53.522,824.943z M283.927,880.679c-5.48-1.959-10.648-5.446-13.384-9.033c-4.972-6.519-5.493-9.945-5.555-36.462
			c-0.063-27.716-0.585-30.761-5.672-33.125c-2.044-0.949-3.235-2.233-3.249-3.5c-0.021-1.922,0.639-2,16.979-2
			c16.963,0,17,0.005,17,2.25c-0.001,1.512-0.6,2.25-1.826,2.25c-1.004,0-2.917,1.161-4.25,2.58l-2.425,2.581v27.169
			c0,25.57,0.122,27.403,2.077,31.131c3.05,5.813,9.133,8.803,16.955,8.334c8.416-0.505,12.968-3.489,16.328-10.706
			c2.579-5.538,2.603-5.812,2.621-30.132c0.017-21.778-0.18-24.848-1.744-27.234c-0.97-1.479-2.882-2.972-4.25-3.314
			c-1.553-0.391-2.487-1.335-2.487-2.517c0-1.762,0.925-1.892,13.5-1.892s13.5,0.13,13.5,1.892c0,1.178-0.933,2.126-2.471,2.512
			c-4.605,1.156-4.973,3.3-5.518,32.172l-0.512,27.075l-3.011,5.882c-3.553,6.942-9.308,11.742-16.715,13.942
			C303.571,882.389,288.943,882.471,283.927,880.679L283.927,880.679z M673.927,880.679c-5.541-1.98-10.657-5.458-13.487-9.17
			c-4.714-6.18-5.39-10.75-5.451-36.858c-0.063-27.146-0.601-30.235-5.672-32.592c-2.043-0.949-3.236-2.233-3.249-3.5
			c-0.021-1.922,0.639-2,16.979-2c16.802,0,17,0.025,16.999,2.181c0,1.465-0.705,2.285-2.149,2.5
			c-1.183,0.176-3.095,1.589-4.25,3.141c-1.969,2.644-2.121,4.291-2.431,26.206c-0.38,26.924,0.372,32.602,4.934,37.268
			c8.252,8.44,25.405,6.083,30.266-4.16c3.062-6.452,3.848-14.534,3.471-35.698c-0.398-22.408-1.067-25.202-6.353-26.528
			c-1.553-0.391-2.487-1.335-2.487-2.517c0-1.762,0.925-1.892,13.5-1.892c12.543,0,13.5,0.134,13.5,1.879
			c0,1.135-1.16,2.359-2.929,3.092c-1.61,0.667-3.272,1.959-3.693,2.871s-1.016,13.843-1.321,28.735l-0.557,27.076l-3.011,5.881
			c-3.553,6.94-9.309,11.741-16.715,13.94C693.57,882.389,678.943,882.471,673.927,880.679L673.927,880.679z M990.458,880.637
			c-3.998-1.74-8.752-7.667-16.108-20.078c-9.5-16.027-10.579-17.474-13.055-17.487c-2.214-0.012-2.25,0.187-2.25,12.52
			c0,14.953,1.249,19.168,5.956,20.109c2.366,0.474,3.044,1.137,3.044,2.983v2.375h-17h-17v-2.375c0-1.847,0.678-2.51,3.044-2.983
			c5.697-1.14,6.101-3.848,5.759-38.656l-0.303-30.827l-2.424-2.579c-1.334-1.418-3.246-2.579-4.25-2.579
			c-1.132,0-1.826-0.728-1.826-1.914c0-1.65,1.015-2.01,7.335-2.603c4.034-0.378,15.172-0.516,24.75-0.305
			c15.572,0.341,17.855,0.614,21.581,2.579c6.617,3.49,10.334,10.297,10.334,18.924c0,8.195-4.698,15.393-13.227,20.264
			c-2.724,1.555-4.482,3.117-3.909,3.471c0.573,0.354,4.992,6.594,9.82,13.864c9.478,14.273,14.745,20.72,16.932,20.72
			c1.928,0,1.758,4.644-0.197,5.394C1004.626,882.541,993.62,882.013,990.458,880.637L990.458,880.637z M971.976,833.595
			c3.975-2.056,7.878-6.999,8.611-10.906c0.941-5.017-1.268-11.635-5.083-15.233c-3.533-3.332-6.947-4.288-12.854-3.598
			l-3.604,0.421v15.391v15.39h5.05C966.872,835.059,970.418,834.4,971.976,833.595L971.976,833.595z M1417.099,880.464
			c-2.996-0.806-5.626-1.645-5.846-1.863c-0.219-0.22-0.951-4.706-1.625-9.971l-1.227-9.571h2.822c1.552,0,2.821,0.373,2.821,0.829
			c0,2.602,6.563,10.265,10.368,12.107c10.285,4.979,22.637,0.291,22.628-8.587c-0.01-5.827-2.835-9.31-12.47-15.35
			c-13.52-8.475-18.74-12.949-21.437-18.375c-2.688-5.408-3.168-13.826-1.14-19.974c1.34-4.058,7.622-10.117,12.91-12.452
			c5.324-2.351,21.988-2.274,28.89,0.132l5.25,1.83v8.92v8.919h-2.892c-2.244,0-3.031-0.555-3.515-2.481
			c-1.048-4.176-6.409-9.392-10.896-10.6c-12.003-3.232-21.617,9.082-14.082,18.037c1.439,1.711,7.964,6.733,14.498,11.162
			c12.658,8.579,17.334,13.251,18.9,18.882c3.448,12.392-2.278,23.336-14.628,27.957
			C1439.806,882.495,1425.471,882.714,1417.099,880.464L1417.099,880.464z M107.045,878.363c0-1.772,0.56-2.305,2.427-2.305
			c1.432,0,3.279-1.081,4.5-2.635c1.998-2.538,2.073-3.782,2.073-34.065c0-21.978-0.35-32.088-1.163-33.615
			c-1.49-2.797-3.864-4.612-6.087-4.652c-1.191-0.021-1.75-0.83-1.75-2.532v-2.5h30h30v10.566v10.566l-2.626-0.316
			c-1.977-0.238-2.902-1.157-3.75-3.723c-1.971-5.971-5.263-7.492-17.166-7.933l-10.458-0.388v14.242v14.241l8.044-0.465
			c8.766-0.508,13.18-2.636,13.775-6.642c0.236-1.586,1.023-2.149,3-2.148l2.681,0.001v12.998v12.999h-2.75
			c-2.218,0-2.75-0.454-2.75-2.345c0-4.466-3.335-6.121-13.104-6.505l-8.896-0.35v14.043c0,16.926,0.155,17.156,11.573,17.156
			c11.26,0,17.131-2.852,20.069-9.75c1.485-3.486,4.947-4.482,6.005-1.728c0.697,1.818-2.121,13.559-4.237,17.651l-1.498,2.896
			l-28.956-0.231l-28.956-0.23V878.363L107.045,878.363z M184.045,878.684c0-1.829,0.677-2.51,2.946-2.964
			c5.275-1.055,5.525-2.536,5.865-34.661c0.352-33.448-0.076-36.461-5.54-39c-2.278-1.059-3.234-2.189-3.25-3.845l-0.021-2.345
			l22.75,0.415c24.599,0.448,26.604,0.837,33.271,6.446c7.327,6.165,9.227,18.428,4.267,27.541
			c-4.326,7.949-11.807,12.17-23.73,13.392l-6.246,0.641l-1.553-3.872l-1.551-3.872l3.695-0.541
			c4.693-0.687,9.792-3.66,12.492-7.285c1.535-2.063,2.086-4.225,2.035-8c-0.129-9.737-5.603-15.692-15.15-16.484l-5.404-0.448
			l0.313,33.379c0.34,36.403,0.5,37.427,6.062,38.565c2.069,0.425,2.75,1.151,2.75,2.939v2.375h-17h-17V878.684L184.045,878.684z
			 M350.045,878.318c0-1.549,0.595-2.26,1.89-2.26c1.039,0,2.951-0.859,4.25-1.91l2.36-1.91l0.303-30.995
			c0.339-34.697-0.045-37.316-5.785-39.483c-1.801-0.68-3.018-1.857-3.018-2.92c0-1.619,1.386-1.804,15.25-2.031
			c29.183-0.478,35.29-0.15,40.037,2.147c6.152,2.978,9.026,7.29,9.533,14.301c0.229,3.151,0.137,6.836-0.202,8.188
			c-0.985,3.926-5.646,8.719-10.8,11.106l-4.764,2.207l4.035,1.209c9.641,2.889,15.787,12.97,14.514,23.805
			c-1.074,9.146-4.999,14.288-14.104,18.482c-4.781,2.203-6.059,2.305-29.25,2.313l-24.25,0.01V878.318L350.045,878.318z
			 M394.147,870.789c5.097-3.405,7.119-8.041,6.552-15.016c-0.854-10.492-8.183-16.715-19.687-16.715h-6.111l0.321,15.091
			c0.309,14.465,0.42,15.17,2.683,17C381.359,873.942,389.703,873.758,394.147,870.789L394.147,870.789z M390.018,829.236
			c6.14-2.353,9.37-7.159,8.731-12.989c-0.858-7.834-7.171-12.188-17.672-12.188h-6.032v13.5v13.5l5.25-0.054
			C383.183,830.975,387.558,830.179,390.018,829.236L390.018,829.236z M431.045,878.375c0-1.616,0.688-2.266,2.651-2.5
			c1.49-0.178,3.57-1.552,4.75-3.14c2.024-2.724,2.099-3.904,2.099-33.5c0-24.586-0.28-31.173-1.413-33.177
			c-1.767-3.124-4.065-4.927-6.337-4.968c-1.139-0.021-1.75-0.818-1.75-2.282c0-2.25,0-2.25,18-2.25s18,0,18,2.25
			c0,1.563-0.595,2.25-1.944,2.25c-1.069,0-3.207,1.086-4.75,2.413l-2.806,2.412l-0.29,31.538l-0.29,31.538l2.559,1.677
			c2.026,1.327,4.191,1.582,10.391,1.224c9.516-0.551,13.973-2.906,16.623-8.784c1.764-3.911,3.63-4.861,6.265-3.188
			c0.989,0.628,0.828,2.476-0.757,8.67c-1.107,4.33-2.709,8.934-3.559,10.231l-1.546,2.359l-27.947-0.295l-27.947-0.295
			L431.045,878.375z M501.045,878.684c0-1.847,0.678-2.51,3.044-2.983c5.522-1.104,5.957-3.832,5.952-37.359
			c-0.003-27.843-0.132-29.992-1.969-33.005c-1.081-1.772-3.104-3.509-4.496-3.858c-1.723-0.433-2.531-1.319-2.531-2.777
			c0-2.104,0.292-2.142,17-2.142s17,0.037,17,2.142c0,1.448-0.806,2.345-2.487,2.767c-1.368,0.343-3.28,1.834-4.25,3.313
			c-1.586,2.42-1.763,5.743-1.763,33.233c0,33.953,0.407,36.677,5.644,37.724c2.18,0.437,2.856,1.135,2.856,2.946v2.375h-17h-17
			V878.684z M740.045,878.503c0-1.645,0.762-2.347,3.044-2.803c5.523-1.104,5.956-3.824,5.956-37.461
			c0-29.466-0.032-29.932-2.284-33.282c-1.257-1.869-3.281-3.542-4.5-3.718c-1.592-0.229-2.216-1.003-2.216-2.75v-2.431h29.5h29.5
			v10.5c0,10.403-0.022,10.5-2.389,10.5c-1.933,0-2.513-0.66-3.037-3.458c-1.115-5.944-5.2-7.94-17.155-8.383l-10.117-0.374
			l-0.651,4.747c-0.357,2.611-0.65,9.023-0.65,14.249v9.501l8.508-0.53c9.366-0.585,13.073-2.233,14.085-6.265
			c0.447-1.782,1.302-2.487,3.016-2.487h2.392v13v13h-2.5c-1.702,0-2.51-0.558-2.532-1.75c-0.09-4.949-4.849-7.25-14.998-7.25
			h-8.161l0.346,14.082c0.419,17.059,0.317,16.918,12.325,16.918c10.598,0,16.109-2.538,18.995-8.75
			c1.452-3.128,2.559-4.25,4.19-4.25c1.22,0,2.521,0.492,2.893,1.094c0.912,1.475-3.524,17.73-5.331,19.537
			c-1.192,1.192-6.271,1.4-29.832,1.223l-28.395-0.215V878.503L740.045,878.503z M850.045,878.739c0-1.64,0.932-2.738,3.179-3.75
			c1.748-0.786,4.11-2.701,5.25-4.254c2.009-2.738,2.071-3.967,2.071-40.5c0-42.382-0.079-42.893-6.982-45.171
			c-2.735-0.902-3.518-1.699-3.518-3.583v-2.423h35h35v12.5v12.5h-3c-2.443,0-3.001-0.417-3.004-2.25
			c-0.006-3.68-3.771-8.755-7.768-10.47c-2.365-1.015-7.842-1.77-14.979-2.065l-11.25-0.466v17.126v17.125l8.25-0.056
			c10.996-0.075,14.76-1.44,17.082-6.193c1.494-3.059,2.371-3.75,4.75-3.75h2.918v15.063v15.063l-3.211-0.313
			c-2.205-0.215-3.379-0.939-3.75-2.313c-1.586-5.883-7.705-8.5-19.868-8.5h-6.394l0.407,17.75
			c0.465,20.256,1.317,23.217,7.306,25.382c2.628,0.95,3.51,1.848,3.51,3.568v2.3h-20.5h-20.5V878.739L850.045,878.739z
			 M1010.045,878.559c0-1.827,0.534-2.5,1.986-2.5c3.063,0,6.563-6.231,14.17-25.233c10.185-25.445,19.844-51.318,19.844-53.156
			c0-1.257,1.042-1.605,4.75-1.59l4.75,0.021l13.488,34.571c14.646,37.541,17.347,43.377,20.762,44.875
			c1.38,0.605,2.25,1.862,2.25,3.25c0,2.262-0.01,2.263-17,2.263h-17v-2.375c0-1.834,0.677-2.51,2.974-2.97
			c4.298-0.859,4.557-3.768,1.217-13.655l-2.872-8.5h-11.816h-11.816l-2.375,7c-2.993,8.82-2.819,14.856,0.439,15.319
			c1.629,0.231,2.25,0.991,2.25,2.75v2.431h-13h-13V878.559L1010.045,878.559z M1056.045,843.543c0-1.521-7.346-21.484-7.905-21.484
			c-0.365,0-1.385,1.913-2.266,4.25c-0.882,2.338-2.759,7.288-4.171,11l-2.568,6.75h8.455
			C1052.24,844.059,1056.045,843.827,1056.045,843.543z M1099.045,878.684c0-1.787,0.681-2.514,2.75-2.938
			c5.41-1.108,5.652-2.517,6.073-35.219c0.434-33.735,0.01-36.572-5.806-38.767c-1.801-0.68-3.018-1.857-3.018-2.92
			c0-1.603,1.128-1.78,11.25-1.778l11.25,0.002l6.5,8.227c3.575,4.524,12.8,15.67,20.5,24.768s15.032,17.883,16.293,19.521
			l2.294,2.979l-0.324-22.591c-0.354-24.616-0.912-27.155-6.275-28.502c-1.553-0.39-2.487-1.334-2.487-2.516
			c0-1.762,0.925-1.892,13.5-1.892c12.671,0,13.5,0.119,13.5,1.931c0,1.209-0.803,2.05-2.149,2.25
			c-1.183,0.176-3.095,1.589-4.25,3.141c-2.031,2.729-2.11,4.045-2.407,39.75l-0.306,36.929h-4.36c-3.943,0-4.675-0.405-7.665-4.25
			c-2.645-3.398-45.009-55.87-46.627-57.75c-0.236-0.274-0.233,10.75,0.01,24.5c0.488,27.882,1.097,31.218,5.873,32.173
			c2.209,0.442,2.886,1.135,2.886,2.952v2.375h-13.5h-13.5v-2.375H1099.045z M1274.045,878.559c0-1.485,0.573-2.5,1.411-2.5
			c1.977,0,5.683-4.692,8.33-10.545c3.681-8.14,20.794-52.314,23.73-61.256l2.727-8.3l4.47,0.3l4.471,0.301l13.267,34
			c7.297,18.7,14.068,35.575,15.048,37.5c2.236,4.395,5.491,8,7.222,8c0.747,0,1.325,1.091,1.325,2.5v2.5h-17h-17v-2.5
			c0-1.74,0.547-2.5,1.8-2.5c4.84,0,5.288-4.226,1.618-15.246l-2.582-7.754h-11.735h-11.735l-2.128,6.75
			c-4.021,12.75-3.829,16.25,0.885,16.25c1.337,0,1.878,0.722,1.878,2.5v2.5h-13h-13V878.559z M1316.476,833.809
			c-1.891-5.637-3.706-10.925-4.033-11.75c-0.355-0.896-2.355,2.93-4.966,9.5c-2.403,6.051-4.384,11.338-4.401,11.75
			c-0.017,0.413,3.765,0.75,8.403,0.75h8.435L1316.476,833.809z M1362.045,878.559c0-1.956,0.511-2.5,2.345-2.5
			c1.29,0,3.203-0.946,4.25-2.104c1.773-1.958,1.926-4.257,2.199-33.25c0.161-17.13,0.044-32.146-0.262-33.368
			c-0.713-2.85-4.383-6.278-6.721-6.278c-1.212,0-1.812-0.744-1.812-2.25c-0.001-2.245,0.037-2.25,16.999-2.25
			c16.35,0,17,0.077,17.001,2.006c0,1.251-1.089,2.488-2.894,3.287c-1.592,0.705-3.358,2.502-3.926,3.994
			c-1.457,3.832-2.286,35.036-1.379,51.895c0.633,11.758,1.084,14.534,2.636,16.25c1.03,1.138,2.703,2.068,3.718,2.068
			c1.301,0,1.845,0.737,1.845,2.5v2.5h-17h-17V878.559L1362.045,878.559z M1474.045,878.379c0-1.789,0.556-2.32,2.428-2.32
			c1.431,0,3.277-1.081,4.5-2.635c1.997-2.538,2.072-3.782,2.072-34.065c0-21.978-0.35-32.088-1.163-33.615
			c-1.49-2.797-3.864-4.612-6.087-4.652c-1.191-0.021-1.75-0.83-1.75-2.532v-2.5h30h30v10.566v10.566l-2.625-0.316
			c-1.978-0.238-2.903-1.157-3.75-3.723c-1.972-5.972-5.264-7.492-17.167-7.933l-10.458-0.388v14.113v14.113l6.25-0.056
			c8.676-0.079,12.907-1.706,14.75-5.672c1.099-2.364,2.169-3.234,4-3.249l2.5-0.021v12.999v12.999l-2.75-0.001
			c-2.218,0-2.75-0.453-2.75-2.345c0-4.466-3.334-6.121-13.104-6.505l-8.896-0.35v14.043c0,16.926,0.155,17.156,11.573,17.156
			c11.261,0,17.131-2.852,20.069-9.75c1.485-3.486,4.947-4.482,6.005-1.727c0.697,1.817-2.121,13.558-4.237,17.65l-1.498,2.897
			l-28.956-0.215l-28.956-0.216V878.379L1474.045,878.379z M134.101,787.136l-2.443-1.878l5.943-9.084
			c3.27-4.996,6.582-9.091,7.362-9.099c3.382-0.038,14.147,2.275,13.878,2.981c-0.537,1.406-20.273,18.991-21.296,18.975
			C136.995,789.021,135.445,788.169,134.101,787.136L134.101,787.136z M7.045,718.059h1523v9h-1523V718.059L7.045,718.059z
			 M586.683,697.594c-8-2.852-12.499-10.308-11.042-18.3c0.982-5.386,4.031-9.154,9.429-11.654l4.724-2.188l-2.874-1.649
			c-1.634-0.938-2.874-2.499-2.874-3.618c0-1.81,7.333-9.125,9.146-9.125c0.433,0-0.195-1.663-1.396-3.696
			c-5.121-8.68-1.023-21.229,8.537-26.148c5.177-2.664,6.924-2.776,25.048-1.616c10.427,0.668,10.814,0.775,10.264,2.828
			c-0.314,1.173-0.578,2.471-0.586,2.883c-0.008,0.413-1.771,0.75-3.919,0.75h-3.905l0.527,5.814
			c1.15,12.684-7.87,21.371-22.434,21.604c-7.564,0.121-11.226,1.726-8.274,3.626c0.82,0.528,5.704,2.324,10.853,3.99
			c16.556,5.358,19.615,8.055,18.909,16.664c-0.733,8.942-7.927,16.739-18.332,19.871
			C602.524,699.421,591.761,699.404,586.683,697.594L586.683,697.594z M608.948,691.42c8.118-4.045,11.635-11.754,7.195-15.771
			c-2.991-2.707-15.981-6.862-19.348-6.189c-6.854,1.37-13.255,9.726-12.074,15.758C586.346,693.506,598.511,696.621,608.948,691.42
			L608.948,691.42z M611.625,646.173c6.095-3.717,8.449-14.265,4.348-19.479c-5.611-7.134-16.29,0.816-16.39,12.201
			c-0.031,3.538,0.479,4.781,2.768,6.75C605.725,648.548,607.561,648.652,611.625,646.173z M649.545,669.378
			c-4.393-0.897-6.746-3.83-7.246-9.028c-1.278-13.31,9.919-32.816,22.451-39.109c6.514-3.271,19.363-3.602,27.923-0.718
			c0.769,0.259,0.2,3.678-1.778,10.708c-3.871,13.752-6.087,27.516-4.814,29.895c0.835,1.561,1.428,1.669,4.078,0.745
			c2.447-0.854,3.286-0.789,3.978,0.304c1.439,2.275,0.565,3.141-5.148,5.095c-7.683,2.626-11.199,2.114-12.354-1.799l-0.912-3.089
			l-4.095,2.288C664.716,668.532,655.267,670.547,649.545,669.378L649.545,669.378z M666.832,660.388
			c2.908-1.382,5.94-3.51,6.739-4.729c1.336-2.038,5.409-17.04,6.999-25.776c0.652-3.58,0.572-3.703-3.063-4.707
			c-6.717-1.854-13.472,3.044-18.853,13.67c-5.645,11.147-7.068,21.078-3.39,23.654C657.761,664.249,659.291,663.97,666.832,660.388
			z M1140.302,669.084c-4.488-1.065-6.071-2.622-7.298-7.178c-1.86-6.908,2.444-19.975,9.764-29.642
			c8.765-11.575,18.507-15.482,32.892-13.19c3.787,0.604,7.184,1.409,7.548,1.791c0.363,0.382-0.9,6.769-2.809,14.193
			c-1.908,7.426-3.556,16.426-3.661,20l-0.192,6.5l4.25-0.188c3.813-0.17,4.25,0.045,4.25,2.091c0,1.909-0.94,2.566-5.77,4.028
			c-7.947,2.406-11.636,1.892-12.047-1.681c-0.174-1.512-0.498-2.75-0.722-2.75c-0.223,0-2.838,1.076-5.811,2.392
			c-4.784,2.115-14.534,4.786-16.45,4.507C1143.86,669.9,1142.085,669.508,1140.302,669.084z M1157.045,660.524
			c2.476-1.237,5.229-3.085,6.122-4.107c2.212-2.535,6.184-15.587,8.24-27.078c0.548-3.063,0.382-3.271-3.404-4.291
			c-3.24-0.873-4.631-0.764-7.479,0.588c-6.348,3.013-12.647,13.232-15.914,25.817
			C1141.48,663.507,1145.382,666.353,1157.045,660.524L1157.045,660.524z M72.542,666.809c-0.299-1.237,1.484-10.539,3.961-20.671
			c4.883-19.976,4.842-21.599-0.51-20.063c-2.646,0.759-2.948,0.613-2.948-1.427c0-1.904,0.931-2.543,5.75-3.95
			c3.163-0.924,7.325-1.782,9.25-1.908c3.295-0.217,3.519-0.033,3.821,3.124c0.177,1.845-1.549,10.985-3.833,20.313
			s-3.887,17.655-3.56,18.508c0.474,1.234,1.523,1.41,5.162,0.864c4.352-0.652,4.552-0.577,4.238,1.606
			c-0.26,1.807-1.493,2.656-5.829,4.013c-3.024,0.946-7.629,1.748-10.231,1.781C73.71,669.051,73.011,668.761,72.542,666.809
			L72.542,666.809z M110.986,667.213l-2.28-1.847l7.748-34.034c4.26-18.72,7.6-35.326,7.419-36.904
			c-0.337-2.941-0.698-3.094-4.578-1.916c-1.919,0.582-2.25,0.312-2.25-1.838c0-2.913,3.513-4.32,13.25-5.309
			c5.579-0.566,5.75-0.512,5.75,1.839c0,1.333-1.575,9.561-3.5,18.284c-1.925,8.723-3.5,16.444-3.5,17.159
			c0,0.97,1.1,0.813,4.341-0.621c11.137-4.926,20.846-4.666,24.33,0.653c3.263,4.979,1.573,17.867-3.728,28.432
			c-2.758,5.497-10.965,14.053-15.422,16.077C132.711,669.849,114.261,669.864,110.986,667.213L110.986,667.213z M136.291,660.872
			c5.014-3.549,10.603-15.54,12.18-26.13c1.579-10.609-5.433-12.726-16.634-5.021c-2.365,1.628-4.264,4.051-5.244,6.694
			c-1.813,4.892-5.548,20.856-5.548,23.714C121.045,664.338,130.728,664.809,136.291,660.872L136.291,660.872z M174.481,665.992
			c-2.708-2.828-2.932-3.625-2.875-10.25c0.144-16.88,9.74-31.988,22.959-36.146c6.596-2.075,12.398-1.372,16.287,1.974
			c2.243,1.929,2.692,3.135,2.692,7.226c0,10.295-9.389,18.104-22.9,19.047c-3.905,0.273-7.431,0.996-7.835,1.606
			c-1.125,1.701-0.901,7.481,0.385,9.926c2.496,4.74,6.075,4.852,14.649,0.454c5.343-2.739,6.441-3.005,7.235-1.75
			c1.767,2.795,0.948,3.673-6.828,7.322c-6.477,3.039-8.897,3.658-14.313,3.658C177.969,669.06,177.171,668.801,174.481,665.992z
			 M192.39,641.98c8.508-2.362,14.119-11.458,9.76-15.817c-2.75-2.749-5.291-2.659-8.824,0.313
			c-2.813,2.367-7.384,9.867-8.734,14.332c-0.569,1.883-0.303,2.249,1.637,2.245C187.502,643.051,190.274,642.567,192.39,641.98z
			 M226.045,668.719c0-0.167,1.798-7.921,3.994-17.231s3.997-18.898,4-21.306l0.006-4.378l-4,0.64c-3.546,0.566-4,0.412-4-1.359
			c0-2.192,3.233-3.872,11.35-5.896c5.554-1.384,7.65-0.435,7.65,3.463v2.348l3.55-2.409c6.242-4.236,10.056-5.013,14.586-2.97
			c2.17,0.979,3.808,2.266,3.639,2.859c-2.715,9.57-4.26,12.579-6.457,12.579c-1.966,0-2.317-0.512-2.317-3.377
			c0-7.275-6.329-7.327-10.919-0.09c-2.859,4.51-5.816,14.765-8.164,28.317c-0.7,4.042-1.756,7.491-2.346,7.664
			C234.857,668.092,226.045,669.046,226.045,668.719L226.045,668.719z M276.208,667.755c-1.104-1.33-0.498-4.924,5.22-30.945
			l2.362-10.75h-3.373c-1.854,0-3.372-0.255-3.372-0.566c0-1.563,2.239-4.434,3.458-4.434c2.438,0,7.12-4.735,9.084-9.188
			c2.195-4.978,3.068-5.776,6.333-5.798c2.148-0.014,2.313,0.295,1.724,3.235c-0.358,1.787-0.922,4.938-1.253,7l-0.601,3.75h4.627
			c4.727,0,5.423,0.765,4.021,4.418c-0.437,1.137-1.951,1.582-5.393,1.582c-5.559,0-4.646-2-9.082,19.898
			c-3.258,16.087-3.038,17.569,2.377,16.017c4.518-1.296,4.882-1.188,4.523,1.335c-0.242,1.706-1.526,2.652-5.319,3.919
			C285.423,669.273,277.688,669.539,276.208,667.755z M316.544,666.464c-7.318-7.896-2.022-30.354,9.629-40.83
			c4.754-4.273,12.177-7.574,17.033-7.574c3.075,0,9.85,3.15,10.868,5.054c1.611,3.012,1.109,10.206-0.948,13.58
			c-4.216,6.914-13.305,11.366-23.207,11.366h-5.874v5.277c0,10.244,4.258,12.042,15.449,6.523c3.567-1.76,6.684-2.997,6.924-2.75
			s0.592,1.349,0.782,2.449c0.276,1.604-1.113,2.74-7.042,5.75c-6.419,3.259-8.291,3.75-14.298,3.75
			C319.706,669.06,318.687,668.775,316.544,666.464L316.544,666.464z M334.146,641.906c5.284-1.792,8.99-4.819,10.592-8.652
			c1.347-3.224,1.31-3.717-0.464-6.101c-2.748-3.696-5.447-3.719-9.589-0.083c-3.195,2.806-8.64,12.212-8.64,14.927
			C326.045,643.393,329.892,643.349,334.146,641.906L334.146,641.906z M709.712,668.393c-1.412-1.412-0.496-7.313,4.301-27.711
			c6.525-27.75,10.032-44.087,10.032-46.736c0-1.896-0.41-2.081-3.5-1.58c-3.185,0.517-3.5,0.353-3.5-1.83
			c0-2.502,2.495-3.609,12.432-5.519c5.132-0.986,6.568-0.336,6.568,2.974c0,1.495-3.372,17.31-7.493,35.144
			s-7.496,33.949-7.5,35.812l-0.007,3.386l4.568-0.626c4.295-0.589,4.549-0.494,4.25,1.582c-0.246,1.708-1.566,2.6-5.818,3.93
			C718.427,668.974,710.909,669.591,709.712,668.393L709.712,668.393z M747.408,667.838c-1.227-1.985-0.525-6.316,3.733-23.038
			c2.218-8.708,3.864-16.6,3.658-17.537c-0.395-1.799-0.645-1.839-5.005-0.813c-2.323,0.547-2.75,0.325-2.75-1.423
			c0-2.384,4.269-4.502,12.045-5.977c5.556-1.054,7.955-0.515,7.955,1.788c0,0.861-2.037,10.061-4.527,20.443
			s-4.231,19.358-3.868,19.945c0.403,0.653,2.38,0.831,5.096,0.459c4.154-0.569,4.416-0.468,4.118,1.601
			c-0.246,1.708-1.565,2.6-5.818,3.93C755.537,669.252,748.468,669.552,747.408,667.838L747.408,667.838z M784.343,667.392
			c-0.353-0.917-0.084-4.18,0.595-7.25c2.231-10.079,7.107-33.146,7.107-33.619c0-0.255-1.383-0.463-3.073-0.463
			c-4.341,0-3.531-2.796,1.574-5.434c3.039-1.571,4.792-3.566,7.305-8.316c2.859-5.409,3.685-6.25,6.126-6.25h2.82l-1.341,6.25
			c-0.737,3.438-1.356,6.587-1.376,7c-0.02,0.412,2.215,0.75,4.965,0.75c5.225,0,5.347,0.104,4.37,3.75
			c-0.527,1.965-1.257,2.25-5.778,2.25h-5.175l-3.363,16.875c-1.85,9.282-3.092,17.582-2.761,18.445
			c0.487,1.269,1.234,1.389,3.898,0.624c4.583-1.313,4.809-1.247,4.809,1.424c0,2.032-0.824,2.6-5.815,4
			C791.481,669.602,785.185,669.586,784.343,667.392L784.343,667.392z M825.523,666.794c-2.489-2.141-2.921-3.315-3.277-8.917
			c-0.802-12.586,4.96-26.795,13.514-33.326c9.445-7.212,19.762-8.169,25.559-2.372c2.689,2.689,2.927,3.448,2.492,7.966
			c-0.951,9.905-10.444,17.1-23.434,17.761c-8.123,0.413-8.978,1.389-7.385,8.433c1.734,7.667,4.887,8.454,14.896,3.719
			c6.631-3.137,8.157-3.135,8.157,0.011c0,3.195-12.002,8.33-20.577,8.803C829.085,669.222,828.108,669.019,825.523,666.794
			L825.523,666.794z M847.027,640.068c6.236-3.182,8.912-10.259,5.362-14.181c-4.467-4.937-12.737,1.529-16.844,13.168l-1.509,4.276
			l4.507-0.618C841.023,642.374,844.841,641.184,847.027,640.068L847.027,640.068z M1086.045,668.69
			c0-0.151,1.798-7.893,3.994-17.203s3.996-18.898,4-21.306l0.01-4.378l-4,0.64c-3.533,0.564-4,0.409-4-1.337
			c0-2.429,1.76-3.412,9.86-5.512c7.039-1.823,9.14-1.121,9.14,3.057v2.348l3.55-2.409c6.224-4.224,10.059-5.012,14.546-2.988
			c2.147,0.969,3.904,2.03,3.904,2.359c0.001,0.329-1.008,3.41-2.241,6.848c-1.85,5.161-2.635,6.25-4.5,6.25
			c-1.899,0-2.259-0.537-2.259-3.377c0-6.836-5.876-7.346-10.265-0.891c-3.336,4.908-5.043,10.234-7.778,24.268
			c-1.232,6.325-2.515,11.78-2.849,12.121c-0.601,0.613-11.108,2.042-11.108,1.511H1086.045z M1201.382,667.495
			c-0.82-2.139,0.127-8.298,3.989-25.936l3.284-15l-2.805-0.313c-3.355-0.375-3.923-3.697-0.8-4.688
			c3.515-1.116,7.575-5.239,9.536-9.686c2.196-4.978,3.069-5.776,6.333-5.798c2.148-0.014,2.313,0.295,1.724,3.235
			c-0.358,1.787-0.922,4.938-1.253,7l-0.602,3.75h4.628c4.727,0,5.423,0.765,4.021,4.418c-0.438,1.137-1.951,1.582-5.393,1.582
			c-5.559,0-4.646-2-9.082,19.898c-3.258,16.087-3.038,17.569,2.377,16.017c4.519-1.296,4.882-1.188,4.523,1.335
			c-0.242,1.706-1.526,2.652-5.319,3.92C1209.888,669.452,1202.185,669.587,1201.382,667.495L1201.382,667.495z M1241.729,666.471
			c-7.58-7.58-2.34-30.242,9.443-40.837c4.754-4.273,12.177-7.574,17.033-7.574c3.075,0,9.85,3.15,10.868,5.054
			c1.612,3.012,1.11,10.206-0.947,13.58c-4.236,6.947-13.306,11.366-23.327,11.366h-5.995l0.444,6.134
			c0.704,9.742,4.283,11.072,15.245,5.667c3.567-1.76,6.684-2.997,6.924-2.75s0.593,1.349,0.782,2.449
			c0.277,1.604-1.113,2.74-7.041,5.75c-6.362,3.229-8.32,3.75-14.114,3.75C1245.142,669.06,1244.001,668.742,1241.729,666.471
			L1241.729,666.471z M1262.693,640.409c6.995-3.477,10.129-11.537,5.769-14.836c-2.896-2.191-4.996-1.822-8.842,1.554
			c-3.218,2.825-8.575,12.198-8.575,15.002C1251.045,643.784,1257.956,642.764,1262.693,640.409L1262.693,640.409z
			 M1293.045,668.199c0-0.421,1.826-8.53,4.059-18.021c2.231-9.49,3.919-18.688,3.75-20.438c-0.289-2.981-0.537-3.168-3.953-2.974
			c-2.857,0.163-3.753-0.207-4.147-1.716c-0.409-1.565,0.457-2.278,4.645-3.824c2.831-1.045,6.836-2.205,8.898-2.579
			c3.877-0.702,3.812-0.756,6.238,5.115c0.046,0.111,2.718-1.126,5.938-2.75c6.891-3.477,8.046-3.572,12.235-1.018l3.162,1.929
			l-2.162,6.543c-1.805,5.46-2.536,6.548-4.413,6.568c-1.884,0.021-2.25-0.514-2.25-3.276c0-8.713-8.293-6.99-12.832,2.667
			c-1.141,2.427-3.4,10.791-5.021,18.589c-1.621,7.798-3.104,14.31-3.297,14.471
			C1303.015,668.223,1293.045,668.879,1293.045,668.199L1293.045,668.199z M1343.045,668.203c0-0.45,1.605-7.079,3.567-14.73
			c2.144-8.356,3.641-16.709,3.75-20.913l0.183-7l-3.626,0.277c-2.851,0.219-3.731-0.125-4.119-1.608
			c-0.403-1.541,0.442-2.171,4.626-3.445c9.091-2.769,11.233-2.967,12.995-1.204c0.894,0.893,1.624,2.716,1.624,4.052
			s0.185,2.429,0.41,2.429s3.195-1.317,6.6-2.927c8.06-3.812,18.743-5.812,21.932-4.104c2.08,1.113,2.229,1.688,1.621,6.271
			c-0.368,2.775-1.986,10.494-3.596,17.152c-1.609,6.659-3.048,13.683-3.196,15.607c-0.271,3.5-0.27,3.5,3.937,3.417
			c2.875-0.057,4.39,0.392,4.783,1.417c0.792,2.066-0.152,2.739-6.422,4.575c-7.111,2.083-13.659,2.1-14.451,0.036
			c-0.328-0.854,1.199-9.571,3.394-19.37c4.399-19.647,4.652-21.884,2.563-22.686c-2.157-0.827-9.809,2.925-14.374,7.05
			c-3.758,3.395-4.239,4.45-6.546,14.362c-1.37,5.884-2.809,12.872-3.197,15.528s-1.213,4.98-1.831,5.165
			C1350.637,668.459,1343.045,668.923,1343.045,668.203L1343.045,668.203z M1411.632,667.425
			c-0.346-0.899,1.439-10.163,3.967-20.586c2.527-10.424,4.359-19.563,4.072-20.311c-0.399-1.041-1.292-1.138-3.816-0.414
			c-1.813,0.52-3.412,0.945-3.553,0.945c-0.142,0-0.257-1.043-0.257-2.317c0-1.928,0.884-2.585,5.25-3.905
			c11.849-3.583,15.509-2.976,14.312,2.377c-0.288,1.29-2.349,9.966-4.579,19.278c-2.23,9.313-3.806,17.586-3.499,18.384
			c0.425,1.107,1.631,1.303,5.104,0.826c4.274-0.586,4.529-0.49,4.23,1.586C1432.247,667.563,1413.115,671.29,1411.632,667.425
			L1411.632,667.425z M1449.359,667.438c-0.667-1.738,0.144-6.513,4.052-23.878c4.321-19.199,4.259-17.5,0.64-17.5
			c-4.397,0-3.665-2.759,1.442-5.434c2.938-1.538,4.75-3.599,7.095-8.066c2.561-4.879,3.671-6.062,5.943-6.33
			c3.035-0.358,3.058-0.104,0.915,10.58l-0.651,3.25h5.232c4.359,0,5.131,0.264,4.625,1.582c-0.334,0.87-0.607,2.22-0.607,3
			c0,1.048-1.401,1.418-5.375,1.418h-5.375l-3.302,16.817c-1.816,9.25-3.021,17.551-2.678,18.445
			c0.511,1.331,1.225,1.456,3.921,0.683c4.583-1.314,4.809-1.248,4.809,1.423c0,2.032-0.824,2.6-5.815,4
			C1456.56,669.58,1450.184,669.584,1449.359,667.438L1449.359,667.438z M1490.468,666.745c-2.863-2.466-2.923-2.717-2.923-12.405
			c0-9.425,0.177-10.247,3.778-17.53c4.417-8.936,9.486-13.77,17.636-16.819c14.195-5.311,24.391,3.712,18.108,16.025
			c-3.552,6.962-13.025,11.987-22.664,12.022c-5.789,0.021-6.18,0.172-6.801,2.65c-0.836,3.33,0.208,8.354,2.209,10.621
			c2.273,2.578,6.184,2.146,13.16-1.451c5.201-2.683,6.355-2.966,7.125-1.75c1.771,2.8,0.893,3.876-5.802,7.11
			c-5.153,2.49-8.424,3.354-13.827,3.652C1494.051,669.225,1493.118,669.026,1490.468,666.745L1490.468,666.745z M1512.249,639.825
			c6.757-3.798,9.012-11.268,4.328-14.337c-1.848-1.21-3.168-1.385-5.25-0.694c-3.526,1.17-8.563,7.707-10.646,13.817l-1.606,4.716
			l4.59-0.629C1506.19,642.353,1510.053,641.06,1512.249,639.825z M0.229,666.337c0.187-0.965,1.233-1.919,2.327-2.119
			c2.97-0.545,5.563-3.179,7.59-7.704c2.688-6.004,10.981-47.753,11.206-56.409c0.19-7.382,0.162-7.474-3.02-9.5
			c-6.205-3.952-4.547-4.546,12.712-4.546c13.673,0,16,0.223,16,1.525c0,0.897-1.246,1.774-3.03,2.131
			c-6.377,1.275-8.798,7.571-14.818,38.541c-5.627,28.941-5.572,28.383-3.045,30.909c1.92,1.921,2.965,2.085,10.76,1.693
			c10.485-0.528,14.273-2.293,17.936-8.355c2.885-4.776,2.999-4.856,5.067-3.546c1.148,0.728,1.105,1.654-0.266,5.734
			c-0.899,2.678-2.655,6.668-3.901,8.867l-2.265,4l-26.796,0.267C1.597,668.075-0.087,667.98,0.229,666.337L0.229,666.337z
			 M506.045,666.642c0-0.78,1.688-2.242,3.75-3.25c2.613-1.277,4.415-3.197,5.942-6.333c2.865-5.879,11.526-48.466,11.685-57.456
			c0.12-6.793,0.048-7.004-3.089-9c-6.711-4.271-5.193-4.544,25.279-4.544c27.955,0,28.554,0.043,27.943,1.968
			c-0.344,1.082-1.187,5.02-1.872,8.75c-1.059,5.753-1.581,6.831-3.443,7.103c-1.786,0.26-2.195-0.172-2.195-2.316
			c0-6.638-3.938-8.503-17.958-8.503h-9.659l-2.773,12.75c-1.525,7.012-2.991,13.537-3.259,14.5
			c-0.436,1.571,0.412,1.748,8.332,1.734c9.958-0.017,12.894-1.079,15.815-5.725c2.601-4.135,5.992-4.467,5.204-0.51
			c-0.301,1.512-1.345,6.912-2.318,12c-1.397,7.296-2.127,9.25-3.453,9.25c-1.061,0-1.898-1.087-2.27-2.946
			c-0.325-1.623-1.615-3.497-2.875-4.175c-2.4-1.291-18.126-1.866-19.29-0.706c-0.673,0.671-3.626,15.083-4.921,24.019
			c-0.623,4.296-0.464,4.835,1.883,6.372c2.061,1.351,4.273,1.594,11.303,1.24c10.435-0.524,14.143-2.19,18.435-8.278
			c1.856-2.635,3.613-4.152,4.438-3.836c1.945,0.746,1.716,2.534-1.233,9.59c-4.373,10.464-1.882,9.72-32.556,9.72
			C510.388,668.059,506.045,667.83,506.045,666.642L506.045,666.642z M1014.045,666.662c0-0.797,1.463-1.946,3.25-2.556
			c6.313-2.152,8.399-7.855,14.716-40.225c5.438-27.874,5.306-32.332-1.026-34.342c-1.127-0.358-1.875-1.175-1.661-1.815
			c0.279-0.841,8.108-1.239,28.127-1.432c27.268-0.262,27.729-0.232,27.11,1.718c-0.347,1.091-1.191,5.035-1.877,8.766
			c-1.059,5.753-1.581,6.831-3.443,7.103c-1.853,0.27-2.195-0.159-2.195-2.75c0-6.313-4.877-8.396-18.436-7.875l-7.937,0.305
			l-2.78,13c-1.528,7.15-2.795,13.563-2.813,14.25c-0.05,1.847,15.23,1.682,18.875-0.202c1.545-0.799,3.377-2.824,4.071-4.5
			c0.773-1.867,1.989-3.048,3.141-3.048c2.328,0,2.343-0.726-0.272,12.75c-1.833,9.447-2.478,11.25-4.016,11.25
			c-1.108,0-1.833-0.722-1.833-1.825c0-4.666-9.349-8.136-17.989-6.676l-3.821,0.646l-2.028,11.178
			c-3.577,19.712-3.426,21.497,2.006,23.747c5.979,2.478,2.528,3.425-13.499,3.706
			C1016.576,668.065,1014.045,667.876,1014.045,666.662L1014.045,666.662z M427.439,645.15c-4.474-2.031-8.395-8.31-8.395-13.439
			c0-7.943,7.021-15.048,14.847-15.021c9.358,0.033,15.143,5.75,15.149,14.971C449.05,643.378,438.308,650.086,427.439,645.15
			L427.439,645.15z M936.424,645.622c-1.716-0.747-4.401-3.036-5.966-5.088c-2.32-3.042-2.831-4.688-2.77-8.923
			c0.133-9.188,5.846-14.838,15.001-14.838c4.537,0,6.048,0.493,9.146,2.984c6.902,5.553,7.976,14.861,2.467,21.408
			C949.672,646.668,942.776,648.387,936.424,645.622L936.424,645.622z M338.563,610.079c-1.968-2.174-2.109-1.945,9.256-14.886
			l3.834-4.365l5.695,1.274c3.133,0.701,5.696,1.577,5.696,1.946c0,0.675-21.411,18.01-22.245,18.01
			C340.556,612.059,339.549,611.168,338.563,610.079L338.563,610.079z M847.316,610.078l-2.219-1.797l7.549-8.61
			c4.152-4.736,7.931-8.611,8.397-8.611c2.438,0,11.011,2.458,10.775,3.09c-0.248,0.665-18.879,15.646-21.279,17.111
			C849.987,611.599,848.536,611.066,847.316,610.078L847.316,610.078z M1512.081,610.087l-2.412-1.82l7.811-8.604
			c4.297-4.732,8.172-8.604,8.612-8.604c1.979,0,10.948,2.403,10.905,2.922c-0.045,0.541-18.928,15.777-21.382,17.252
			C1514.999,611.604,1513.409,611.088,1512.081,610.087z M84.94,604.955c-4.063-4.064-0.098-11.896,6.024-11.896
			c4.257,0,6.479,2.234,6.479,6.512C97.444,606.244,89.605,609.62,84.94,604.955z M759.795,605.667
			c-2.458-1.865-2.312-8.046,0.25-10.608c4.125-4.124,12-1.433,12,4.103C772.045,605.155,764.44,609.193,759.795,605.667z
			 M1423.94,604.955c-4.135-4.135-0.08-11.896,6.215-11.896c6.282,0,8.974,7.007,4.436,11.546
			C1431.51,607.686,1426.825,607.839,1423.94,604.955L1423.94,604.955z M547.841,576.37c-1.527-1.702-1.163-2.313,6.071-10.182
			l7.695-8.371l5.719,1.28c3.146,0.704,5.696,1.546,5.669,1.87c-0.082,0.951-20.163,16.334-21.925,16.795
			C550.188,577.993,548.735,577.367,547.841,576.37L547.841,576.37z"/>
	</g>
	<g>
		<rect id="rect6" fill="#FFFFFF" width="1538" height="520"/>
		<path id="path10" inkscape:connector-curvature="0" fill="#EC2227" d="M880.1,520l2.333-6.033
			c3.954-10.899,8.054-19.217,13.972-28.343c6.269-9.667,20.066-23.907,25.807-26.633c7.054-3.35,15.824-4.528,26.669-3.586
			c9.313,0.81,37.926,5.488,49.472,8.09c8.787,1.979,21.654,2.169,27.709,0.407c11.666-3.394,18.577-9.953,21.856-20.746
			c2.517-8.279,2.492-15.805-0.065-20.823c-3.437-6.74-2.852-8.493,5.5-16.479c4.125-3.944,7.505-7.591,7.513-8.104
			c0.034-2.67-5.681-13.39-7.152-13.415c-0.901-0.015-2.683-0.872-3.958-1.906l-2.318-1.879l4.958-2.535
			c6.77-3.461,11.791-8.843,11.791-12.638c0-1.64-1.426-5.659-3.17-8.932c-3.345-6.281-4.24-12.283-2.356-15.805
			c1.244-2.327,3.391-3.306,13.934-6.353c8.858-2.561,12.062-5.156,13.324-10.799c1.081-4.827,0.55-7.93-2.349-13.729
			c-2.36-4.722-17.73-28.27-22.208-34.022c-6.017-7.73-13.346-21.086-15.514-28.27c-2.137-7.081-2.151-7.482-0.592-16.635
			c3.296-19.349,1.368-35.391-8.01-66.669c-6.97-23.246-8.842-28.89-11.024-33.239c-3.945-7.863-3.418-9.704,4.677-16.331
			c3.875-3.172,7.476-6.571,8-7.553c2.444-4.571-0.287-13.378-4.919-15.858c-2.94-1.574-4.576-0.494-7.562,4.994
			c-2.261,4.158-3.147,4.945-5.568,4.945c-3.939,0-4.63-1.652-2.114-5.058c2.934-3.97,2.701-4.607-1.906-5.226
			c-3.449-0.463-5.272-1.811-12.75-9.426c-10.025-10.209-16.761-14.914-30.186-21.087c-6.154-2.83-8.298-4.169-6.04-3.774
			c1.925,0.337,8.731,0.875,15.125,1.196c18.553,0.931,23.063-1.52,27.386-14.885c2.936-9.074,4.344-13.271-2.393-19.607L983.246,0
			H1538v520H880.1z"/>
		<path id="path12" inkscape:connector-curvature="0" fill="#0E50A0" d="M407.032,520c-4.025-0.423-7.517-0.606-7.757-0.847
			c-0.424-0.424,4.123-3.348,24.949-16.039c6.68-4.071,9.428-6.253,8.5-6.749c-0.755-0.403-6.585-1.043-12.957-1.421
			c-9.468-0.562-12.211-0.4-15,0.882c-1.878,0.862-9.372,3.132-16.653,5.043c-18.06,4.739-24.137,7.993-29.936,16.027L356.012,520H0
			V0h706.339l-13.686,8.934c-7.535,3.741-16.291,8.936-19.458,11.545c-10.744,8.851-25.211,28.985-28.823,40.114
			c-1.328,4.091-2.533,5.624-6.607,8.405c-6.217,4.243-13.664,12.334-19.83,21.546c-8.373,12.508-24.332,40.698-27.468,48.518
			c-4.865,12.131-4.423,21.369,2.756,57.622c3.161,15.961,6.581,32.171,7.601,36.024c1.019,3.853,2.135,10.382,2.479,14.51
			c0.615,7.37,1.094,8.965,5.408,18.012c1.182,2.477,2.146,5.287,2.146,6.246c-0.002,0.958,0.896,2.305,1.997,2.992
			c1.141,0.713,2,2.333,2,3.773c0,1.733,2.277,5.023,7.28,10.516c11.444,12.566,19.72,24.347,19.72,28.073
			c0,3.06-4.489,3.851-11.721,2.064c-8.452-2.087-15.366-6.595-26.029-16.972c-4.538-4.416-8.25-7.384-8.25-6.597
			s3.111,4.893,6.913,9.123c7.563,8.414,8.749,10.709,7.113,13.767c-1.431,2.675-4.911,3.454-9.62,2.153
			c-5.434-1.501-8.618,0.591-7.722,5.075c0.55,2.751,0.399,3.075-1.155,2.478c-3.071-1.18-9.793-2.531-15.838-3.184
			c-5.553-0.6-5.964-0.843-9.325-5.525c-2.547-3.548-4.529-5.182-7.191-5.93c-9.923-2.786-34.604-7.082-51.175-8.906
			c-29.128-3.207-36.145-3.458-50.1-1.797c-10.716,1.275-13.63,2.023-19.499,5.008c-10.391,5.283-28.401,21.837-28.401,26.104
			c0,2.002,3.967,1.296,8.5-1.513c13.757-8.524,60.88-20.554,84-21.445c11.457-0.441,10.836,0.107-2.91,2.572
			c-3.801,0.681-12.801,2.987-20,5.124c-7.199,2.137-19.614,5.43-27.59,7.317c-7.975,1.888-16.975,4.321-20,5.407l-5.5,1.976
			l8.5,0.093c43.311,0.473,92.682,14.223,112.773,31.407c8.646,7.394,11.812,8.292,24.528,6.952
			c17.428-1.835,39.985-10.155,49.878-18.397c4.293-3.577,7.824-4.999,7.817-3.148c-0.011,3.269-5.697,20.839-8.155,25.199
			c-2.74,4.86-2.896,5.559-1.469,6.603c0.878,0.642,1.344,1.42,1.036,1.728s0.374,0.857,1.516,1.219
			c3.281,1.042,2.456,2.05-2.782,3.393c-5.106,1.31-9.143,3.603-9.143,5.193c0,0.519,0.701,0.944,1.559,0.944
			c2.568,0,0.652,1.796-2.703,2.533c-2.298,0.505-2.757,0.918-1.738,1.563c0.997,0.632,1.034,0.881,0.133,0.892
			c-0.688,0.008-1.25,1.031-1.25,2.273c0,1.546-0.945,2.676-3,3.586c-5.007,2.218-3.604,3.416,3.25,2.773
			c3.438-0.322,5.575-0.319,4.75,0.007c-0.825,0.326-6.45,2.873-12.5,5.659s-13.925,6.093-17.5,7.35
			c-4.047,1.422-6.632,2.92-6.849,3.968c-0.35,1.685,1.529,1.629,6.256-0.186c0.876-0.337,1.582-0.226,1.568,0.246
			s-10.429,6.486-23.145,13.365c-12.717,6.88-24.615,13.972-26.442,15.761s-4.165,3.252-5.194,3.252
			c-1.037,0-2.392,1.139-3.033,2.549c-1.942,4.266-1.541,4.785,3.089,3.989c6.879-1.182,10.031-1.116,10.488,0.217
			c0.247,0.721-0.401,1.251-1.532,1.251c-1.079,0-2.499,0.648-3.156,1.441c-0.658,0.793-2.395,1.581-3.859,1.751
			c-1.704,0.198-3.389,1.456-4.677,3.494c-1.107,1.752-2.913,3.417-4.014,3.699c-1.1,0.283,0.476,0.33,3.5,0.104
			c44.979-3.347,53.36-5.013,71.5-14.211c15.476-7.848,31.54-19.513,42.969-31.202c3.282-3.357,6.32-6.104,6.75-6.104
			c1.554,0,0.711,5.612-1.584,10.543c-3.971,8.533-12.303,16.394-29.428,27.764c-8.639,5.735-17.957,11.138-20.707,12.004
			c-8.592,2.707-22.463,5.592-37.004,7.694c-47.373,6.85-65.502,12.045-83.46,23.918c-3.006,1.987-6.161,3.495-7.011,3.351
			c-0.851-0.144-3.117,1.081-5.036,2.722c-5.397,4.615-1.486,3.835,9.707-1.938c11.472-5.916,16.849-6.848,7.804-1.353
			C468.262,515.777,459.808,520,451.53,520H407.032z M348.187,461.994c1.798-0.752,7.746-4.084,13.218-7.405
			s11.974-6.957,14.448-8.08c2.476-1.123,9.45-4.276,15.5-7.007c12.681-5.723,31.29-11.122,32.36-9.39
			c0.376,0.608,3.148,1.279,6.162,1.489c4.217,0.295,4.96,0.566,3.228,1.178c-1.237,0.438-2.25,1.192-2.25,1.679
			c0,1.811,9.359,1.268,13.299-0.771c1.545-0.8,5.035-1.717,7.755-2.04c3.383-0.4,4.946-1.044,4.946-2.035
			c0-1.132,0.859-1.305,3.913-0.788c4.203,0.711,13.243-1,37.587-7.11c16.486-4.138,28.973-8.303,39.94-13.321l7.939-3.633
			l-7.939-5.088c-19.353-12.402-38.785-20.018-81.44-31.917c-7.425-2.071-13.949-4.213-14.5-4.76c-0.663-0.659-0.326-0.752,1-0.276
			c4.259,1.528,7.5,1.821,7.5,0.678c0-1.483-3.221-2.679-9.548-3.544c-5.787-0.792-9.522-2.519-5.502-2.544
			c6.223-0.039-4.475-3.984-16.45-6.068c-8.865-1.542-9.376-1.872-5.673-3.667c3.227-1.564,6.698-7.482,5.785-9.863
			c-0.775-2.021-1.742-1.813-6.538,1.41c-9.245,6.213-17.725,16.388-22.49,26.985c-2.719,6.045-1.777,6.6,12.215,7.198
			c11.457,0.49,11.639,0.534,8.701,2.112c-1.649,0.887-4.959,1.913-7.354,2.28c-8.135,1.248-12.654,5.11-8.621,7.369
			c1.198,0.67,0.723,1.236-2.219,2.639c-3.296,1.573-3.527,1.906-1.944,2.793c0.989,0.554,3.865,0.843,6.391,0.642
			c3.511-0.279,5.114,0.099,6.804,1.605l2.211,1.971l-4.437,2.815c-2.439,1.549-5.2,4.259-6.133,6.024
			c-0.934,1.765-4.284,5.963-7.447,9.329c-3.162,3.367-5.75,6.849-5.75,7.738c0,0.889-4.612,5.309-10.25,9.821
			c-15.16,12.136-21.749,18.806-21.749,22.018c0,1.699-0.857,3.229-2.36,4.216c-4.732,3.103-7.203,6.688-4.608,6.688
			C344.453,463.36,346.389,462.746,348.187,461.994L348.187,461.994z M465.165,450.302c3.747-0.501,8.086-1.664,9.643-2.584
			l2.829-1.672l-4.825-2.406l-4.826-2.406l-4.816,1.952c-2.648,1.074-6.317,2.521-8.151,3.215c-7.378,2.794-8.341,6.549-1.415,5.519
			C456.216,451.53,461.419,450.803,465.165,450.302L465.165,450.302z M295.854,404.798c22.284-23.316,38.011-37.148,57.972-50.99
			c6.783-4.704,11.562-7.424,11.798-6.715c0.647,1.945,3.554,1.373,8.284-1.633c5.437-3.453,8.156-6.948,14.941-19.201
			c7.04-12.712,9.7-15.889,19.862-23.72c4.753-3.663,11.753-9.131,15.554-12.152c5.479-4.354,6.795-5.042,6.344-3.317
			c-0.349,1.336-0.107,2.176,0.624,2.176c2.272,0,12.977-4.572,13.354-5.703c0.589-1.769-10.286-3.595-18.331-3.078
			c-6.176,0.396-8.363,1.114-16.027,5.253c-18.008,9.728-31.017,20.221-55.857,45.056c-17.876,17.872-31.958,29.855-39.076,33.251
			c-2.317,1.106-4.063,3.425-6.875,9.132c-5.466,11.093-15.223,27.012-24.486,39.947c-8.754,12.226-10.633,16.454-3.829,8.621
			C282.44,419.032,289.528,411.416,295.854,404.798L295.854,404.798z M518.853,514.272c26.764-5.566,29.719-5.981,48.5-6.804
			c21.09-0.925,23.777-1.473,36.465-7.439c4.064-1.911,5.658-2.259,6.224-1.357c0.983,1.57,7.864-2.18,21.312-11.614
			c5.5-3.858,13.277-8.79,17.283-10.959c6.037-3.267,7.884-3.829,10.787-3.284c3.101,0.582,4.019,0.204,7.978-3.283
			c10.974-9.666,20.344-14.135,29.702-14.164c2.782-0.009,3.75,0.403,3.75,1.597c0,1.018,0.55,1.396,1.5,1.031
			c2.787-1.07,1.524,0.154-5.645,5.473c-8.301,6.158-7.485,8.007,0.954,2.162c8.17-5.658,8.19-5.667,8.19-3.379
			c0,1.304-3.075,4.578-8.75,9.315c-12.911,10.778-22.054,19.692-35.972,35.073L648.681,520H490.353L518.853,514.272z
			 M519.103,310.57c0.963-0.251,2.537-0.251,3.5,0c0.963,0.252,0.175,0.458-1.75,0.458S518.141,310.822,519.103,310.57z"/>
		<path id="path14" inkscape:connector-curvature="0" fill="#808080" d="M985.584,272.516c-4.367-0.661-2.113-2.284,3.171-2.284
			c5.302,0,8.097-2.036,8.097-5.9c0-1.816-0.396-2.115-2.089-1.577c-1.462,0.464-2.502,0.074-3.463-1.3
			c-0.898-1.283-3.069-2.188-6.262-2.612c-5.704-0.757-14.941-6.268-13.285-7.926c0.565-0.566,3.502-1.234,6.525-1.485
			c5.211-0.432,5.556-0.632,6.613-3.838c0.791-2.4,1.892-3.565,3.787-4.011c1.47-0.346,3.798-1.666,5.173-2.933
			c1.375-1.268,5.875-4.508,10-7.201c6.935-4.526,11.231-9.352,9.695-10.889c-1.618-1.619-16.634-3.381-23.695-2.781
			c-8.204,0.698-22.339,3.68-28.25,5.959c-6.068,2.34-4.294,0.302,4.043-4.645c11.255-6.678,32.92-12.905,44.901-12.905
			c4.648,0,20.203,3.676,22.056,5.212c3.629,3.01-0.329,13.574-7.062,18.845l-2.811,2.201l2.311,2.466l2.312,2.466l-2.361,1.916
			c-1.298,1.054-3.077,1.917-3.952,1.917s-3.043,1.408-4.816,3.128c-2.73,2.647-3.083,3.502-2.298,5.569
			c0.608,1.601,0.549,3.15-0.172,4.499c-0.674,1.259-0.843,4.123-0.436,7.384c0.831,6.657-0.368,9.042-5.227,10.392
			C1004.487,273.186,991.296,273.38,985.584,272.516L985.584,272.516z"/>
	</g>
</g>
</svg>
