<?xml version="1.0" encoding="utf-8"?>
<!-- Generator: Adobe Illustrator 15.0.0, SVG Export Plug-In . SVG Version: 6.00 Build 0)  -->
<!DOCTYPE svg PUBLIC "-//W3C//DTD SVG 1.1//EN" "http://www.w3.org/Graphics/SVG/1.1/DTD/svg11.dtd">
<svg version="1.1"
	 id="svg2" xmlns:dc="http://purl.org/dc/elements/1.1/" xmlns:cc="http://creativecommons.org/ns#" xmlns:rdf="http://www.w3.org/1999/02/22-rdf-syntax-ns#" xmlns:svg="http://www.w3.org/2000/svg" xmlns:sodipodi="http://sodipodi.sourceforge.net/DTD/sodipodi-0.dtd" xmlns:inkscape="http://www.inkscape.org/namespaces/inkscape" inkscape:version="0.48.1 " sodipodi:docname="Aa.svg"
	 xmlns="http://www.w3.org/2000/svg" xmlns:xlink="http://www.w3.org/1999/xlink" x="0px" y="0px" width="1550px"
	 height="913.069px" viewBox="22.754 15.028 1550 913.069" enable-background="new 22.754 15.028 1550 913.069"
	 xml:space="preserve">
<g>
	
		<sodipodi:namedview  id="namedview9" objecttolerance="10" inkscape:cy="459.95334" borderopacity="1" fit-margin-top="0" pagecolor="#ffffff" showgrid="false" inkscape:cx="969.33049" bordercolor="#666666" inkscape:zoom="0.5" guidetolerance="10" gridtolerance="10" fit-margin-left="0" inkscape:current-layer="svg2" inkscape:window-y="-8" inkscape:window-x="-8" fit-margin-bottom="0" fit-margin-right="0" inkscape:window-height="1004" inkscape:window-width="1280" inkscape:pageshadow="2" inkscape:pageopacity="0" inkscape:window-maximized="1">
		</sodipodi:namedview>
	<g>
		<g>
			<path id="path8" inkscape:connector-curvature="0" d="M1257.121,923.983c-0.85-0.346-0.9-1.272-0.188-3.317
				c0.902-2.591,1.318-2.793,4.791-2.327c3.148,0.422,4.074,0.12,5.391-1.759c2.529-3.611,0.576-6.217-4.014-5.355
				c-3.521,0.66-3.576,0.621-2.898-2.082c2.154-8.582,2.359-8.109-4.059-9.383c-7.643-1.515-14.953-5.795-20.568-12.041
				c-8.432-9.379-11.357-18.866-10.516-34.117c0.428-7.77,1.09-10.799,3.539-16.201c7.496-16.535,24.621-24.966,47.639-23.455
				c4.982,0.327,11.311,1.175,14.061,1.886l5,1.29l0.287,9.25l0.287,9.25h-3.037c-1.791,0-3.037-0.521-3.037-1.271
				c0-2.598-6.123-8.61-10.455-10.264c-5.59-2.135-16.434-1.648-21.865,0.981c-12.416,6.01-18.078,21.609-14.303,39.413
				c1.754,8.272,4.652,13.821,10.191,19.516c5.252,5.397,10.549,7.577,18.486,7.604c8.393,0.028,14.27-3.345,17.967-10.313
				c2.51-4.733,3.406-5.314,5.828-3.779c1.129,0.715,1.139,2.36,0.064,9.955l-1.289,9.098l-4.563,1.577
				c-2.51,0.867-8.275,1.848-12.813,2.179c-7.824,0.571-8.25,0.724-8.25,2.954c0,1.78,0.553,2.351,2.277,2.351
				c3.34,0,6.473,2.587,7.213,5.955c0.859,3.913-1.926,9.702-5.576,11.589C1270.074,924.53,1259.785,925.07,1257.121,923.983
				L1257.121,923.983z M662.16,919.774c-8.657-2.552-16.123-6.401-25.104-12.944l-7.758-5.652l-12-0.615
				c-13.306-0.683-17.954-2.168-26.562-8.486c-18.961-13.919-19.649-49.337-1.294-66.576c13.817-12.978,38.127-15.659,55.624-6.136
				c23.623,12.857,26.131,50.785,4.672,70.652c-3.33,3.083-6.591,5.606-7.247,5.609c-2.044,0.007,21.456,12.861,28.328,15.496
				c7.592,2.91,16.462,3.299,22.959,1.006c4.728-1.667,5.535-1.468,6.328,1.565c0.464,1.772-0.346,2.519-5.129,4.733
				C687.438,921.919,671.636,922.568,662.16,919.774L662.16,919.774z M632.837,888.87c16.745-8.747,19.933-36.761,6.219-54.649
				c-12.709-16.579-34.983-14.069-43.355,4.885c-7.564,17.125,1.065,43.602,16.498,50.609
				C618.443,892.552,626.415,892.226,632.837,888.87z M107.299,899.233c-4.593-2.004-9.632-8.24-17.595-21.773
				c-12.234-20.792-14.527-23.839-17.942-23.839h-2.963l0.021,11.25c0.036,20.533,2.102,27.561,8.574,29.185
				c1.732,0.435,2.405,1.299,2.405,3.085v2.48h-20.5h-20.5v-2.354c0-1.784,0.765-2.575,3.148-3.259
				c1.731-0.496,4.094-2.17,5.25-3.719c2.052-2.748,2.102-3.748,2.102-41.669s-0.05-38.92-2.102-41.668
				c-1.156-1.548-3.519-3.221-5.25-3.717c-2.301-0.66-3.148-1.494-3.148-3.098c0-2.186,0.113-2.198,25.399-2.849
				c26.912-0.693,32.844-0.181,40.43,3.491c6.627,3.208,12.15,12.929,12.166,21.41c0.018,9.709-7.203,20.675-16.732,25.409
				l-4.987,2.478l11.024,16.522c12.969,19.438,17.041,24.63,20.873,26.611c3.576,1.85,3.92,5.885,0.577,6.78
				C123.526,901.069,110.377,900.577,107.299,899.233L107.299,899.233z M82.276,843.506c13.406-3.722,17.93-22.351,7.785-32.053
				c-4.77-4.561-9.834-6.216-16.297-5.327l-4.966,0.684v18.905v18.906l4.75-0.006C76.161,844.612,80.089,844.113,82.276,843.506
				L82.276,843.506z M312.681,899.241c-5.48-1.959-10.648-5.446-13.384-9.033c-4.972-6.519-5.493-9.945-5.555-36.462
				c-0.063-27.716-0.585-30.761-5.672-33.125c-2.044-0.949-3.235-2.233-3.249-3.5c-0.021-1.922,0.639-2,16.979-2
				c16.963,0,17,0.005,17,2.25c-0.001,1.512-0.6,2.25-1.826,2.25c-1.004,0-2.917,1.161-4.25,2.58l-2.425,2.581v27.169
				c0,25.57,0.122,27.403,2.077,31.131c3.05,5.813,9.133,8.803,16.955,8.334c8.416-0.505,12.968-3.489,16.328-10.706
				c2.579-5.538,2.603-5.812,2.621-30.132c0.017-21.778-0.18-24.848-1.744-27.234c-0.97-1.479-2.882-2.972-4.25-3.314
				c-1.553-0.391-2.487-1.335-2.487-2.517c0-1.762,0.925-1.892,13.5-1.892s13.5,0.13,13.5,1.892c0,1.178-0.933,2.126-2.471,2.512
				c-4.605,1.156-4.973,3.3-5.518,32.172l-0.512,27.075l-3.011,5.882c-3.553,6.942-9.308,11.742-16.715,13.942
				C332.325,900.951,317.697,901.033,312.681,899.241L312.681,899.241z M702.681,899.241c-5.541-1.98-10.657-5.458-13.487-9.17
				c-4.714-6.18-5.39-10.75-5.451-36.858c-0.063-27.146-0.601-30.235-5.672-32.592c-2.043-0.949-3.236-2.233-3.249-3.5
				c-0.021-1.922,0.639-2,16.979-2c16.802,0,17,0.025,16.999,2.181c0,1.465-0.705,2.285-2.149,2.5
				c-1.183,0.176-3.095,1.589-4.25,3.141c-1.969,2.644-2.121,4.291-2.431,26.206c-0.38,26.924,0.372,32.602,4.934,37.268
				c8.252,8.44,25.405,6.083,30.266-4.16c3.062-6.452,3.848-14.534,3.471-35.698c-0.398-22.408-1.067-25.202-6.353-26.528
				c-1.553-0.391-2.487-1.335-2.487-2.517c0-1.762,0.925-1.892,13.5-1.892c12.543,0,13.5,0.134,13.5,1.879
				c0,1.135-1.16,2.359-2.929,3.092c-1.61,0.667-3.272,1.959-3.693,2.871s-1.016,13.843-1.321,28.735l-0.557,27.076l-3.011,5.881
				c-3.553,6.94-9.309,11.741-16.715,13.94C722.324,900.951,707.697,901.033,702.681,899.241L702.681,899.241z M1019.211,899.199
				c-3.998-1.74-8.752-7.667-16.107-20.078c-9.5-16.027-10.58-17.474-13.055-17.487c-2.215-0.012-2.25,0.187-2.25,12.52
				c0,14.953,1.248,19.168,5.955,20.109c2.367,0.474,3.045,1.137,3.045,2.983v2.375h-17h-17v-2.375c0-1.847,0.678-2.51,3.043-2.983
				c5.697-1.14,6.102-3.848,5.76-38.656l-0.303-30.827l-2.424-2.579c-1.334-1.418-3.246-2.579-4.25-2.579
				c-1.133,0-1.826-0.728-1.826-1.914c0-1.65,1.014-2.01,7.334-2.603c4.035-0.378,15.172-0.516,24.75-0.305
				c15.572,0.341,17.855,0.614,21.582,2.579c6.617,3.49,10.334,10.297,10.334,18.924c0,8.195-4.699,15.393-13.227,20.264
				c-2.725,1.555-4.482,3.117-3.91,3.471c0.574,0.354,4.992,6.594,9.82,13.864c9.479,14.273,14.746,20.72,16.932,20.72
				c1.928,0,1.758,4.644-0.197,5.394C1033.379,901.104,1022.373,900.575,1019.211,899.199L1019.211,899.199z M1000.729,852.157
				c3.975-2.056,7.879-6.999,8.611-10.906c0.941-5.017-1.268-11.635-5.082-15.233c-3.533-3.332-6.947-4.288-12.855-3.598
				l-3.604,0.421v15.391v15.39h5.049C995.625,853.621,999.172,852.963,1000.729,852.157L1000.729,852.157z M1445.852,899.026
				c-2.996-0.806-5.625-1.645-5.846-1.863c-0.219-0.22-0.951-4.706-1.625-9.971l-1.227-9.571h2.822c1.553,0,2.822,0.373,2.822,0.829
				c0,2.602,6.563,10.265,10.367,12.107c10.285,4.979,22.637,0.291,22.629-8.587c-0.01-5.827-2.836-9.31-12.471-15.35
				c-13.52-8.475-18.74-12.949-21.436-18.375c-2.689-5.408-3.168-13.826-1.141-19.974c1.34-4.058,7.623-10.117,12.91-12.452
				c5.324-2.351,21.988-2.274,28.891,0.132l5.25,1.83v8.92v8.919h-2.893c-2.244,0-3.031-0.555-3.514-2.481
				c-1.049-4.176-6.41-9.392-10.896-10.6c-12.002-3.232-21.617,9.082-14.082,18.037c1.439,1.711,7.965,6.733,14.498,11.162
				c12.658,8.579,17.334,13.251,18.9,18.882c3.449,12.392-2.277,23.336-14.627,27.957
				C1468.559,901.058,1454.225,901.276,1445.852,899.026L1445.852,899.026z M135.799,896.926c0-1.772,0.56-2.305,2.427-2.305
				c1.432,0,3.279-1.081,4.5-2.635c1.998-2.538,2.073-3.782,2.073-34.065c0-21.978-0.35-32.088-1.163-33.615
				c-1.49-2.797-3.864-4.612-6.087-4.652c-1.191-0.021-1.75-0.83-1.75-2.532v-2.5h30h30v10.566v10.566l-2.626-0.316
				c-1.977-0.238-2.902-1.157-3.75-3.723c-1.971-5.971-5.263-7.492-17.166-7.933l-10.458-0.388v14.242v14.241l8.044-0.465
				c8.766-0.508,13.18-2.636,13.775-6.642c0.236-1.586,1.023-2.149,3-2.148l2.681,0.001v12.998v12.999h-2.75
				c-2.218,0-2.75-0.454-2.75-2.345c0-4.466-3.335-6.121-13.104-6.505l-8.896-0.35v14.043c0,16.926,0.155,17.156,11.573,17.156
				c11.26,0,17.131-2.852,20.069-9.75c1.485-3.486,4.947-4.482,6.005-1.728c0.697,1.818-2.121,13.559-4.237,17.651l-1.498,2.896
				l-28.956-0.231l-28.956-0.23V896.926L135.799,896.926z M212.799,897.246c0-1.829,0.677-2.51,2.946-2.964
				c5.275-1.055,5.525-2.536,5.865-34.661c0.352-33.448-0.076-36.461-5.54-39c-2.278-1.059-3.234-2.189-3.25-3.845l-0.021-2.345
				l22.75,0.415c24.599,0.448,26.604,0.837,33.271,6.446c7.327,6.165,9.227,18.428,4.267,27.541
				c-4.326,7.949-11.807,12.17-23.73,13.392l-6.246,0.641l-1.553-3.872l-1.551-3.872l3.695-0.541
				c4.693-0.687,9.792-3.66,12.492-7.285c1.535-2.063,2.086-4.225,2.035-8c-0.129-9.737-5.603-15.692-15.15-16.484l-5.404-0.448
				l0.313,33.379c0.34,36.403,0.5,37.427,6.062,38.565c2.069,0.425,2.75,1.151,2.75,2.939v2.375h-17h-17V897.246L212.799,897.246z
				 M378.799,896.881c0-1.549,0.595-2.26,1.89-2.26c1.039,0,2.951-0.859,4.25-1.91l2.36-1.91l0.303-30.995
				c0.339-34.697-0.045-37.316-5.785-39.483c-1.801-0.68-3.018-1.857-3.018-2.92c0-1.619,1.386-1.804,15.25-2.031
				c29.183-0.478,35.29-0.15,40.037,2.147c6.152,2.978,9.026,7.29,9.533,14.301c0.229,3.151,0.137,6.836-0.202,8.188
				c-0.985,3.926-5.646,8.719-10.8,11.106l-4.764,2.207l4.035,1.209c9.641,2.889,15.787,12.97,14.514,23.805
				c-1.074,9.146-4.999,14.288-14.104,18.482c-4.781,2.203-6.059,2.305-29.25,2.313l-24.25,0.01V896.881L378.799,896.881z
				 M422.901,889.352c5.097-3.405,7.119-8.041,6.552-15.016c-0.854-10.492-8.183-16.715-19.687-16.715h-6.111l0.321,15.091
				c0.309,14.465,0.42,15.17,2.683,17C410.113,892.505,418.457,892.32,422.901,889.352L422.901,889.352z M418.771,847.799
				c6.14-2.353,9.37-7.159,8.731-12.989c-0.858-7.834-7.171-12.188-17.672-12.188h-6.032v13.5v13.5l5.25-0.054
				C411.937,849.537,416.312,848.741,418.771,847.799L418.771,847.799z M459.799,896.938c0-1.616,0.688-2.266,2.651-2.5
				c1.49-0.178,3.57-1.552,4.75-3.14c2.024-2.724,2.099-3.904,2.099-33.5c0-24.586-0.28-31.173-1.413-33.177
				c-1.767-3.124-4.065-4.927-6.337-4.968c-1.139-0.021-1.75-0.818-1.75-2.282c0-2.25,0-2.25,18-2.25s18,0,18,2.25
				c0,1.563-0.595,2.25-1.944,2.25c-1.069,0-3.207,1.086-4.75,2.413l-2.806,2.412l-0.29,31.538l-0.29,31.538l2.559,1.677
				c2.026,1.327,4.191,1.582,10.391,1.224c9.516-0.551,13.973-2.906,16.623-8.784c1.764-3.911,3.63-4.861,6.265-3.188
				c0.989,0.628,0.828,2.476-0.757,8.67c-1.107,4.33-2.709,8.934-3.559,10.231l-1.546,2.359l-27.947-0.295l-27.947-0.295
				L459.799,896.938z M529.799,897.246c0-1.847,0.678-2.51,3.044-2.983c5.522-1.104,5.957-3.832,5.952-37.359
				c-0.003-27.843-0.132-29.992-1.969-33.005c-1.081-1.772-3.104-3.509-4.496-3.858c-1.723-0.433-2.531-1.319-2.531-2.777
				c0-2.104,0.292-2.142,17-2.142s17,0.037,17,2.142c0,1.448-0.806,2.345-2.487,2.767c-1.368,0.343-3.28,1.834-4.25,3.313
				c-1.586,2.42-1.763,5.743-1.763,33.233c0,33.953,0.407,36.677,5.644,37.724c2.18,0.437,2.856,1.135,2.856,2.946v2.375h-17h-17
				V897.246z M768.799,897.065c0-1.645,0.762-2.347,3.043-2.803c5.523-1.104,5.957-3.824,5.957-37.461
				c0-29.466-0.033-29.932-2.285-33.282c-1.256-1.869-3.281-3.542-4.5-3.718c-1.591-0.229-2.215-1.003-2.215-2.75v-2.431h29.5h29.5
				v10.5c0,10.403-0.023,10.5-2.389,10.5c-1.934,0-2.514-0.66-3.037-3.458c-1.115-5.944-5.201-7.94-17.156-8.383l-10.117-0.374
				l-0.65,4.747c-0.357,2.611-0.65,9.023-0.65,14.249v9.501l8.508-0.53c9.365-0.585,13.072-2.233,14.084-6.265
				c0.447-1.782,1.303-2.487,3.016-2.487h2.393v13v13h-2.5c-1.703,0-2.51-0.558-2.533-1.75c-0.09-4.949-4.848-7.25-14.998-7.25
				h-8.16l0.346,14.082c0.418,17.059,0.316,16.918,12.324,16.918c10.598,0,16.109-2.538,18.996-8.75
				c1.451-3.128,2.559-4.25,4.189-4.25c1.221,0,2.521,0.492,2.893,1.094c0.912,1.475-3.523,17.73-5.33,19.537
				c-1.193,1.192-6.271,1.4-29.832,1.223l-28.395-0.215V897.065L768.799,897.065z M878.799,897.302c0-1.64,0.932-2.738,3.178-3.75
				c1.748-0.786,4.111-2.701,5.25-4.254c2.01-2.738,2.072-3.967,2.072-40.5c0-42.382-0.08-42.893-6.982-45.171
				c-2.736-0.902-3.518-1.699-3.518-3.583v-2.423h35h35v12.5v12.5h-3c-2.443,0-3.002-0.417-3.004-2.25
				c-0.006-3.68-3.771-8.755-7.768-10.47c-2.365-1.015-7.842-1.77-14.979-2.065l-11.25-0.466v17.126v17.125l8.25-0.056
				c10.996-0.075,14.76-1.44,17.082-6.193c1.494-3.059,2.371-3.75,4.75-3.75h2.918v15.063v15.063l-3.211-0.313
				c-2.205-0.215-3.379-0.939-3.75-2.313c-1.586-5.883-7.705-8.5-19.869-8.5h-6.393l0.406,17.75
				c0.465,20.256,1.318,23.217,7.307,25.382c2.627,0.95,3.51,1.848,3.51,3.568v2.3h-20.5h-20.5V897.302L878.799,897.302z
				 M1038.799,897.121c0-1.827,0.533-2.5,1.986-2.5c3.063,0,6.563-6.231,14.17-25.233c10.184-25.445,19.844-51.318,19.844-53.156
				c0-1.257,1.041-1.605,4.75-1.59l4.75,0.021l13.488,34.571c14.646,37.541,17.346,43.377,20.762,44.875
				c1.379,0.605,2.25,1.862,2.25,3.25c0,2.262-0.01,2.263-17,2.263h-17v-2.375c0-1.834,0.676-2.51,2.973-2.97
				c4.299-0.859,4.557-3.768,1.217-13.655l-2.871-8.5h-11.816h-11.816l-2.375,7c-2.994,8.82-2.82,14.856,0.439,15.319
				c1.629,0.231,2.25,0.991,2.25,2.75v2.431h-13h-13V897.121L1038.799,897.121z M1084.799,862.105
				c0-1.521-7.346-21.484-7.906-21.484c-0.365,0-1.385,1.913-2.266,4.25c-0.881,2.338-2.758,7.288-4.17,11l-2.568,6.75h8.455
				C1080.994,862.621,1084.799,862.39,1084.799,862.105z M1127.799,897.246c0-1.787,0.68-2.514,2.75-2.938
				c5.41-1.108,5.652-2.517,6.072-35.219c0.434-33.735,0.01-36.572-5.805-38.767c-1.801-0.68-3.018-1.857-3.018-2.92
				c0-1.603,1.127-1.78,11.25-1.778l11.25,0.002l6.5,8.227c3.574,4.524,12.799,15.67,20.5,24.768
				c7.699,9.098,15.031,17.883,16.293,19.521l2.293,2.979l-0.324-22.591c-0.354-24.616-0.912-27.155-6.275-28.502
				c-1.553-0.39-2.486-1.334-2.486-2.516c0-1.762,0.924-1.892,13.5-1.892c12.67,0,13.5,0.119,13.5,1.931
				c0,1.209-0.803,2.05-2.15,2.25c-1.182,0.176-3.094,1.589-4.25,3.141c-2.031,2.729-2.109,4.045-2.406,39.75l-0.307,36.929h-4.359
				c-3.943,0-4.676-0.405-7.666-4.25c-2.645-3.398-45.008-55.87-46.627-57.75c-0.236-0.274-0.232,10.75,0.01,24.5
				c0.488,27.882,1.098,31.218,5.873,32.173c2.209,0.442,2.887,1.135,2.887,2.952v2.375h-13.5h-13.5v-2.375H1127.799z
				 M1302.799,897.121c0-1.485,0.572-2.5,1.41-2.5c1.977,0,5.684-4.692,8.33-10.545c3.682-8.14,20.795-52.314,23.73-61.256
				l2.727-8.3l4.471,0.3l4.471,0.301l13.266,34c7.297,18.7,14.068,35.575,15.049,37.5c2.236,4.395,5.49,8,7.221,8
				c0.748,0,1.326,1.091,1.326,2.5v2.5h-17h-17v-2.5c0-1.74,0.547-2.5,1.799-2.5c4.84,0,5.289-4.226,1.619-15.246l-2.582-7.754
				h-11.736h-11.734l-2.129,6.75c-4.02,12.75-3.828,16.25,0.885,16.25c1.338,0,1.879,0.722,1.879,2.5v2.5h-13h-13V897.121z
				 M1345.229,852.371c-1.891-5.637-3.705-10.925-4.033-11.75c-0.355-0.896-2.355,2.93-4.965,9.5
				c-2.404,6.051-4.385,11.338-4.402,11.75c-0.016,0.413,3.766,0.75,8.404,0.75h8.434L1345.229,852.371z M1390.799,897.121
				c0-1.956,0.51-2.5,2.344-2.5c1.291,0,3.203-0.946,4.25-2.104c1.773-1.958,1.926-4.257,2.199-33.25
				c0.162-17.13,0.045-32.146-0.262-33.368c-0.713-2.85-4.383-6.278-6.721-6.278c-1.211,0-1.811-0.744-1.811-2.25
				c-0.002-2.245,0.037-2.25,16.998-2.25c16.35,0,17,0.077,17.002,2.006c0,1.251-1.09,2.488-2.895,3.287
				c-1.592,0.705-3.357,2.502-3.926,3.994c-1.457,3.832-2.285,35.036-1.379,51.895c0.633,11.758,1.084,14.534,2.637,16.25
				c1.029,1.138,2.703,2.068,3.717,2.068c1.301,0,1.846,0.737,1.846,2.5v2.5h-17h-17V897.121L1390.799,897.121z M1502.799,896.941
				c0-1.789,0.555-2.32,2.428-2.32c1.43,0,3.277-1.081,4.5-2.635c1.996-2.538,2.072-3.782,2.072-34.065
				c0-21.978-0.35-32.088-1.164-33.615c-1.49-2.797-3.863-4.612-6.086-4.652c-1.191-0.021-1.75-0.83-1.75-2.532v-2.5h30h30v10.566
				v10.566l-2.625-0.316c-1.979-0.238-2.904-1.157-3.75-3.723c-1.973-5.972-5.264-7.492-17.168-7.933l-10.457-0.388v14.113v14.113
				l6.25-0.056c8.676-0.079,12.906-1.706,14.75-5.672c1.098-2.364,2.168-3.234,4-3.249l2.5-0.021v12.999v12.999l-2.75-0.001
				c-2.219,0-2.75-0.453-2.75-2.345c0-4.466-3.334-6.121-13.104-6.505l-8.896-0.35v14.043c0,16.926,0.154,17.156,11.572,17.156
				c11.262,0,17.131-2.852,20.07-9.75c1.484-3.486,4.947-4.482,6.004-1.727c0.697,1.817-2.121,13.558-4.236,17.65l-1.498,2.897
				l-28.957-0.215l-28.955-0.216V896.941L1502.799,896.941z M162.854,805.698l-2.443-1.878l5.943-9.084
				c3.27-4.996,6.582-9.091,7.362-9.099c3.382-0.038,14.147,2.275,13.878,2.981c-0.537,1.406-20.273,18.991-21.296,18.975
				C165.749,807.584,164.199,806.731,162.854,805.698L162.854,805.698z M35.799,736.621h1523v9h-1523V736.621L35.799,736.621z
				 M615.437,716.156c-8-2.852-12.499-10.308-11.042-18.3c0.982-5.386,4.031-9.154,9.429-11.654l4.724-2.188l-2.874-1.649
				c-1.634-0.938-2.874-2.499-2.874-3.618c0-1.81,7.333-9.125,9.146-9.125c0.433,0-0.195-1.663-1.396-3.696
				c-5.121-8.68-1.023-21.229,8.537-26.148c5.177-2.664,6.924-2.776,25.048-1.616c10.427,0.668,10.814,0.775,10.264,2.828
				c-0.314,1.173-0.578,2.471-0.586,2.883c-0.008,0.413-1.771,0.75-3.919,0.75h-3.905l0.527,5.814
				c1.15,12.684-7.87,21.371-22.434,21.604c-7.564,0.121-11.226,1.726-8.274,3.626c0.82,0.528,5.704,2.324,10.853,3.99
				c16.556,5.358,19.615,8.055,18.909,16.664c-0.733,8.942-7.927,16.739-18.332,19.871
				C631.278,717.983,620.515,717.967,615.437,716.156L615.437,716.156z M637.702,709.982c8.118-4.045,11.635-11.754,7.195-15.771
				c-2.991-2.707-15.981-6.862-19.348-6.189c-6.854,1.37-13.255,9.726-12.074,15.758C615.1,712.068,627.265,715.184,637.702,709.982
				L637.702,709.982z M640.379,664.735c6.095-3.717,8.449-14.265,4.348-19.479c-5.611-7.134-16.29,0.816-16.39,12.201
				c-0.031,3.538,0.479,4.781,2.768,6.75C634.479,667.11,636.314,667.215,640.379,664.735z M678.299,687.94
				c-4.393-0.897-6.746-3.83-7.246-9.028c-1.278-13.31,9.919-32.816,22.451-39.109c6.514-3.271,19.363-3.602,27.923-0.718
				c0.769,0.259,0.2,3.678-1.778,10.708c-3.871,13.752-6.087,27.516-4.814,29.895c0.835,1.561,1.428,1.669,4.078,0.745
				c2.447-0.854,3.286-0.789,3.978,0.304c1.439,2.275,0.565,3.141-5.148,5.095c-7.683,2.626-11.199,2.114-12.354-1.799l-0.912-3.089
				l-4.095,2.288C693.47,687.095,684.021,689.109,678.299,687.94L678.299,687.94z M695.586,678.95
				c2.908-1.382,5.94-3.51,6.739-4.729c1.336-2.038,5.409-17.04,6.999-25.776c0.652-3.58,0.572-3.703-3.063-4.707
				c-6.717-1.854-13.472,3.044-18.853,13.67c-5.645,11.147-7.068,21.078-3.39,23.654
				C686.515,682.812,688.045,682.532,695.586,678.95z M1169.055,687.646c-4.488-1.065-6.07-2.622-7.297-7.178
				c-1.861-6.908,2.443-19.975,9.764-29.642c8.764-11.575,18.506-15.482,32.891-13.19c3.787,0.604,7.184,1.409,7.549,1.791
				c0.363,0.382-0.9,6.769-2.809,14.193c-1.908,7.426-3.557,16.426-3.662,20l-0.191,6.5l4.25-0.188
				c3.813-0.17,4.25,0.045,4.25,2.091c0,1.909-0.941,2.566-5.77,4.028c-7.947,2.406-11.637,1.892-12.047-1.681
				c-0.174-1.512-0.498-2.75-0.723-2.75c-0.223,0-2.838,1.076-5.811,2.392c-4.783,2.115-14.533,4.786-16.449,4.507
				C1172.613,688.463,1170.838,688.07,1169.055,687.646z M1185.799,679.087c2.475-1.237,5.229-3.085,6.121-4.107
				c2.213-2.535,6.184-15.587,8.24-27.078c0.549-3.063,0.383-3.271-3.404-4.291c-3.24-0.873-4.631-0.764-7.479,0.588
				c-6.348,3.013-12.648,13.232-15.914,25.817C1170.234,682.069,1174.135,684.915,1185.799,679.087L1185.799,679.087z
				 M101.296,685.371c-0.299-1.237,1.484-10.539,3.961-20.671c4.883-19.976,4.842-21.599-0.51-20.063
				c-2.646,0.759-2.948,0.613-2.948-1.427c0-1.904,0.931-2.543,5.75-3.95c3.163-0.924,7.325-1.782,9.25-1.908
				c3.295-0.217,3.519-0.033,3.821,3.124c0.177,1.845-1.549,10.985-3.833,20.313s-3.887,17.655-3.56,18.508
				c0.474,1.234,1.523,1.41,5.162,0.864c4.352-0.652,4.552-0.577,4.238,1.606c-0.26,1.807-1.493,2.656-5.829,4.013
				c-3.024,0.946-7.629,1.748-10.231,1.781C102.464,687.613,101.765,687.323,101.296,685.371L101.296,685.371z M139.74,685.775
				l-2.28-1.847l7.748-34.034c4.26-18.72,7.6-35.326,7.419-36.904c-0.337-2.941-0.698-3.094-4.578-1.916
				c-1.919,0.582-2.25,0.312-2.25-1.838c0-2.913,3.513-4.32,13.25-5.309c5.579-0.566,5.75-0.512,5.75,1.839
				c0,1.333-1.575,9.561-3.5,18.284c-1.925,8.723-3.5,16.444-3.5,17.159c0,0.97,1.1,0.813,4.341-0.621
				c11.137-4.926,20.846-4.666,24.33,0.653c3.263,4.979,1.573,17.867-3.728,28.432c-2.758,5.497-10.965,14.053-15.422,16.077
				C161.465,688.411,143.015,688.427,139.74,685.775L139.74,685.775z M165.045,679.435c5.014-3.549,10.603-15.54,12.18-26.13
				c1.579-10.609-5.433-12.726-16.634-5.021c-2.365,1.628-4.264,4.051-5.244,6.694c-1.813,4.892-5.548,20.856-5.548,23.714
				C149.799,682.9,159.481,683.371,165.045,679.435L165.045,679.435z M203.235,684.555c-2.708-2.828-2.932-3.625-2.875-10.25
				c0.144-16.88,9.74-31.988,22.959-36.146c6.596-2.075,12.398-1.372,16.287,1.974c2.243,1.929,2.692,3.135,2.692,7.226
				c0,10.295-9.389,18.104-22.9,19.047c-3.905,0.273-7.431,0.996-7.835,1.606c-1.125,1.701-0.901,7.481,0.385,9.926
				c2.496,4.74,6.075,4.852,14.649,0.454c5.343-2.739,6.441-3.005,7.235-1.75c1.767,2.795,0.948,3.673-6.828,7.322
				c-6.477,3.039-8.897,3.658-14.313,3.658C206.723,687.622,205.925,687.363,203.235,684.555z M221.144,660.543
				c8.508-2.362,14.119-11.458,9.76-15.817c-2.75-2.749-5.291-2.659-8.824,0.313c-2.813,2.367-7.384,9.867-8.734,14.332
				c-0.569,1.883-0.303,2.249,1.637,2.245C216.256,661.613,219.028,661.13,221.144,660.543z M254.799,687.281
				c0-0.167,1.798-7.921,3.994-17.231s3.997-18.898,4-21.306l0.006-4.378l-4,0.64c-3.546,0.566-4,0.412-4-1.359
				c0-2.192,3.233-3.872,11.35-5.896c5.554-1.384,7.65-0.435,7.65,3.463v2.348l3.55-2.409c6.242-4.236,10.056-5.013,14.586-2.97
				c2.17,0.979,3.808,2.266,3.639,2.859c-2.715,9.57-4.26,12.579-6.457,12.579c-1.966,0-2.317-0.512-2.317-3.377
				c0-7.275-6.329-7.327-10.919-0.09c-2.859,4.51-5.816,14.765-8.164,28.317c-0.7,4.042-1.756,7.491-2.346,7.664
				C263.611,686.654,254.799,687.608,254.799,687.281L254.799,687.281z M304.962,686.317c-1.104-1.33-0.498-4.924,5.22-30.945
				l2.362-10.75h-3.373c-1.854,0-3.372-0.255-3.372-0.566c0-1.563,2.239-4.434,3.458-4.434c2.438,0,7.12-4.735,9.084-9.188
				c2.195-4.978,3.068-5.776,6.333-5.798c2.148-0.014,2.313,0.295,1.724,3.235c-0.358,1.787-0.922,4.938-1.253,7l-0.601,3.75h4.627
				c4.727,0,5.423,0.765,4.021,4.418c-0.437,1.137-1.951,1.582-5.393,1.582c-5.559,0-4.646-2-9.082,19.898
				c-3.258,16.087-3.038,17.569,2.377,16.017c4.518-1.296,4.882-1.188,4.523,1.335c-0.242,1.706-1.526,2.652-5.319,3.919
				C314.177,687.836,306.442,688.102,304.962,686.317z M345.298,685.026c-7.318-7.896-2.022-30.354,9.629-40.83
				c4.754-4.273,12.177-7.574,17.033-7.574c3.075,0,9.85,3.15,10.868,5.054c1.611,3.012,1.109,10.206-0.948,13.58
				c-4.216,6.914-13.305,11.366-23.207,11.366h-5.874v5.277c0,10.244,4.258,12.042,15.449,6.523c3.567-1.76,6.684-2.997,6.924-2.75
				s0.592,1.349,0.782,2.449c0.276,1.604-1.113,2.74-7.042,5.75c-6.419,3.259-8.291,3.75-14.298,3.75
				C348.46,687.622,347.44,687.338,345.298,685.026L345.298,685.026z M362.899,660.469c5.284-1.792,8.99-4.819,10.592-8.652
				c1.347-3.224,1.31-3.717-0.464-6.101c-2.748-3.696-5.447-3.719-9.589-0.083c-3.195,2.806-8.64,12.212-8.64,14.927
				C354.799,661.955,358.646,661.911,362.899,660.469L362.899,660.469z M738.466,686.955c-1.412-1.412-0.496-7.313,4.301-27.711
				c6.525-27.75,10.032-44.087,10.032-46.736c0-1.896-0.41-2.081-3.5-1.58c-3.185,0.517-3.5,0.353-3.5-1.83
				c0-2.502,2.495-3.609,12.432-5.519c5.132-0.986,6.568-0.336,6.568,2.974c0,1.495-3.372,17.31-7.493,35.144
				s-7.496,33.949-7.5,35.812l-0.007,3.386l4.568-0.626c4.295-0.589,4.549-0.494,4.25,1.582c-0.246,1.708-1.566,2.6-5.818,3.93
				C747.181,687.536,739.663,688.153,738.466,686.955L738.466,686.955z M776.162,686.4c-1.227-1.985-0.525-6.316,3.732-23.038
				c2.219-8.708,3.865-16.6,3.658-17.537c-0.395-1.799-0.645-1.839-5.004-0.813c-2.324,0.547-2.75,0.325-2.75-1.423
				c0-2.384,4.268-4.502,12.045-5.977c5.555-1.054,7.955-0.515,7.955,1.788c0,0.861-2.037,10.061-4.527,20.443
				s-4.232,19.358-3.869,19.945c0.404,0.653,2.381,0.831,5.096,0.459c4.154-0.569,4.416-0.468,4.119,1.601
				c-0.246,1.708-1.566,2.6-5.818,3.93C784.291,687.814,777.221,688.114,776.162,686.4L776.162,686.4z M813.096,685.954
				c-0.352-0.917-0.084-4.18,0.596-7.25c2.23-10.079,7.107-33.146,7.107-33.619c0-0.255-1.383-0.463-3.074-0.463
				c-4.34,0-3.531-2.796,1.574-5.434c3.039-1.571,4.793-3.566,7.305-8.316c2.859-5.409,3.686-6.25,6.127-6.25h2.82l-1.342,6.25
				c-0.736,3.438-1.355,6.587-1.375,7c-0.02,0.412,2.215,0.75,4.965,0.75c5.225,0,5.346,0.104,4.369,3.75
				c-0.527,1.965-1.256,2.25-5.777,2.25h-5.176l-3.363,16.875c-1.85,9.282-3.092,17.582-2.76,18.445
				c0.486,1.269,1.234,1.389,3.898,0.624c4.582-1.313,4.809-1.247,4.809,1.424c0,2.032-0.824,2.6-5.816,4
				C820.234,688.164,813.938,688.148,813.096,685.954L813.096,685.954z M854.277,685.356c-2.49-2.141-2.922-3.315-3.277-8.917
				c-0.803-12.586,4.959-26.795,13.514-33.326c9.445-7.212,19.762-8.169,25.559-2.372c2.689,2.689,2.926,3.448,2.492,7.966
				c-0.951,9.905-10.445,17.1-23.434,17.761c-8.123,0.413-8.979,1.389-7.385,8.433c1.734,7.667,4.887,8.454,14.895,3.719
				c6.631-3.137,8.158-3.135,8.158,0.011c0,3.195-12.002,8.33-20.578,8.803C857.838,687.784,856.861,687.581,854.277,685.356
				L854.277,685.356z M875.781,658.631c6.236-3.182,8.912-10.259,5.361-14.181c-4.467-4.937-12.736,1.529-16.844,13.168
				l-1.508,4.276l4.506-0.618C869.777,660.937,873.594,659.746,875.781,658.631L875.781,658.631z M1114.799,687.253
				c0-0.151,1.797-7.893,3.994-17.203c2.195-9.311,3.996-18.898,4-21.306l0.01-4.378l-4,0.64c-3.533,0.564-4,0.409-4-1.337
				c0-2.429,1.76-3.412,9.859-5.512c7.039-1.823,9.141-1.121,9.141,3.057v2.348l3.549-2.409c6.225-4.224,10.059-5.012,14.547-2.988
				c2.146,0.969,3.904,2.03,3.904,2.359s-1.008,3.41-2.242,6.848c-1.85,5.161-2.635,6.25-4.5,6.25c-1.898,0-2.258-0.537-2.258-3.377
				c0-6.836-5.877-7.346-10.266-0.891c-3.336,4.908-5.043,10.234-7.777,24.268c-1.232,6.325-2.516,11.78-2.85,12.121
				c-0.6,0.613-11.107,2.042-11.107,1.511H1114.799z M1230.135,686.058c-0.82-2.139,0.127-8.298,3.99-25.936l3.283-15l-2.805-0.313
				c-3.355-0.375-3.922-3.697-0.799-4.688c3.514-1.116,7.574-5.239,9.535-9.686c2.197-4.978,3.07-5.776,6.334-5.798
				c2.148-0.014,2.313,0.295,1.723,3.235c-0.357,1.787-0.922,4.938-1.252,7l-0.602,3.75h4.627c4.727,0,5.424,0.765,4.021,4.418
				c-0.438,1.137-1.951,1.582-5.393,1.582c-5.559,0-4.645-2-9.082,19.898c-3.258,16.087-3.037,17.569,2.377,16.017
				c4.52-1.296,4.883-1.188,4.523,1.335c-0.242,1.706-1.525,2.652-5.318,3.92C1238.641,688.015,1230.938,688.149,1230.135,686.058
				L1230.135,686.058z M1270.482,685.033c-7.58-7.58-2.34-30.242,9.443-40.837c4.754-4.273,12.178-7.574,17.033-7.574
				c3.076,0,9.85,3.15,10.869,5.054c1.611,3.012,1.109,10.206-0.947,13.58c-4.236,6.947-13.307,11.366-23.328,11.366h-5.994
				l0.443,6.134c0.705,9.742,4.283,11.072,15.246,5.667c3.566-1.76,6.684-2.997,6.924-2.75s0.592,1.349,0.781,2.449
				c0.277,1.604-1.113,2.74-7.041,5.75c-6.361,3.229-8.32,3.75-14.113,3.75C1273.895,687.622,1272.754,687.305,1270.482,685.033
				L1270.482,685.033z M1291.447,658.972c6.994-3.477,10.129-11.537,5.768-14.836c-2.896-2.191-4.996-1.822-8.842,1.554
				c-3.217,2.825-8.574,12.198-8.574,15.002C1279.799,662.347,1286.709,661.326,1291.447,658.972L1291.447,658.972z
				 M1321.799,686.762c0-0.421,1.826-8.53,4.059-18.021c2.23-9.49,3.918-18.688,3.75-20.438c-0.289-2.981-0.537-3.168-3.953-2.974
				c-2.857,0.163-3.754-0.207-4.148-1.716c-0.408-1.565,0.457-2.278,4.645-3.824c2.832-1.045,6.836-2.205,8.898-2.579
				c3.877-0.702,3.813-0.756,6.238,5.115c0.047,0.111,2.719-1.126,5.939-2.75c6.891-3.477,8.045-3.572,12.234-1.018l3.162,1.929
				l-2.162,6.543c-1.805,5.46-2.535,6.548-4.412,6.568c-1.885,0.021-2.25-0.514-2.25-3.276c0-8.713-8.293-6.99-12.832,2.667
				c-1.141,2.427-3.4,10.791-5.021,18.589s-3.104,14.31-3.297,14.471C1331.768,686.785,1321.799,687.441,1321.799,686.762
				L1321.799,686.762z M1371.799,686.766c0-0.45,1.605-7.079,3.566-14.73c2.145-8.356,3.641-16.709,3.75-20.913l0.184-7
				l-3.627,0.277c-2.85,0.219-3.73-0.125-4.119-1.608c-0.402-1.541,0.443-2.171,4.627-3.445c9.09-2.769,11.232-2.967,12.994-1.204
				c0.895,0.893,1.625,2.716,1.625,4.052s0.184,2.429,0.41,2.429c0.225,0,3.195-1.317,6.6-2.927
				c8.059-3.812,18.742-5.812,21.932-4.104c2.08,1.113,2.229,1.688,1.621,6.271c-0.369,2.775-1.986,10.494-3.596,17.152
				c-1.609,6.659-3.049,13.683-3.197,15.607c-0.27,3.5-0.27,3.5,3.938,3.417c2.875-0.057,4.389,0.392,4.783,1.417
				c0.791,2.066-0.152,2.739-6.422,4.575c-7.111,2.083-13.66,2.1-14.451,0.036c-0.328-0.854,1.199-9.571,3.393-19.37
				c4.4-19.647,4.652-21.884,2.563-22.686c-2.156-0.827-9.809,2.925-14.373,7.05c-3.758,3.395-4.24,4.45-6.547,14.362
				c-1.369,5.884-2.809,12.872-3.197,15.528s-1.213,4.98-1.83,5.165C1379.391,687.021,1371.799,687.485,1371.799,686.766
				L1371.799,686.766z M1440.385,685.987c-0.346-0.899,1.439-10.163,3.967-20.586c2.527-10.424,4.359-19.563,4.072-20.311
				c-0.398-1.041-1.291-1.138-3.816-0.414c-1.813,0.52-3.412,0.945-3.553,0.945s-0.256-1.043-0.256-2.317
				c0-1.928,0.883-2.585,5.25-3.905c11.848-3.583,15.508-2.976,14.311,2.377c-0.287,1.29-2.348,9.966-4.578,19.278
				c-2.23,9.313-3.807,17.586-3.5,18.384c0.426,1.107,1.631,1.303,5.105,0.826c4.273-0.586,4.529-0.49,4.23,1.586
				C1461,686.125,1441.869,689.853,1440.385,685.987L1440.385,685.987z M1478.113,686c-0.668-1.738,0.143-6.513,4.051-23.878
				c4.322-19.199,4.26-17.5,0.641-17.5c-4.398,0-3.666-2.759,1.441-5.434c2.938-1.538,4.75-3.599,7.096-8.066
				c2.561-4.879,3.67-6.062,5.943-6.33c3.035-0.358,3.057-0.104,0.914,10.58l-0.65,3.25h5.232c4.359,0,5.131,0.264,4.625,1.582
				c-0.334,0.87-0.607,2.22-0.607,3c0,1.048-1.402,1.418-5.375,1.418h-5.375l-3.303,16.817c-1.816,9.25-3.021,17.551-2.678,18.445
				c0.512,1.331,1.225,1.456,3.922,0.683c4.582-1.314,4.809-1.248,4.809,1.423c0,2.032-0.824,2.6-5.816,4
				C1485.313,688.143,1478.938,688.146,1478.113,686L1478.113,686z M1519.221,685.308c-2.863-2.466-2.922-2.717-2.922-12.405
				c0-9.425,0.176-10.247,3.777-17.53c4.418-8.936,9.486-13.77,17.637-16.819c14.195-5.311,24.391,3.712,18.107,16.025
				c-3.551,6.962-13.025,11.987-22.664,12.022c-5.789,0.021-6.18,0.172-6.801,2.65c-0.836,3.33,0.209,8.354,2.209,10.621
				c2.273,2.578,6.184,2.146,13.16-1.451c5.201-2.683,6.355-2.966,7.125-1.75c1.771,2.8,0.893,3.876-5.801,7.11
				c-5.154,2.49-8.424,3.354-13.828,3.652C1522.805,687.787,1521.871,687.589,1519.221,685.308L1519.221,685.308z M1541.002,658.388
				c6.758-3.798,9.012-11.268,4.328-14.337c-1.848-1.21-3.168-1.385-5.25-0.694c-3.525,1.17-8.563,7.707-10.645,13.817l-1.607,4.716
				l4.59-0.629C1534.943,660.915,1538.807,659.622,1541.002,658.388z M28.983,684.899c0.187-0.965,1.233-1.919,2.327-2.119
				c2.97-0.545,5.563-3.179,7.59-7.704c2.688-6.004,10.981-47.753,11.206-56.409c0.19-7.382,0.162-7.474-3.02-9.5
				c-6.205-3.952-4.547-4.546,12.712-4.546c13.673,0,16,0.223,16,1.525c0,0.897-1.246,1.774-3.03,2.131
				c-6.377,1.275-8.798,7.571-14.818,38.541c-5.627,28.941-5.572,28.383-3.045,30.909c1.92,1.921,2.965,2.085,10.76,1.693
				c10.485-0.528,14.273-2.293,17.936-8.355c2.885-4.776,2.999-4.856,5.067-3.546c1.148,0.728,1.105,1.654-0.266,5.734
				c-0.899,2.678-2.655,6.668-3.901,8.867l-2.265,4l-26.796,0.267C30.351,686.638,28.667,686.543,28.983,684.899L28.983,684.899z
				 M534.799,685.204c0-0.78,1.688-2.242,3.75-3.25c2.613-1.277,4.415-3.197,5.942-6.333c2.865-5.879,11.526-48.466,11.685-57.456
				c0.12-6.793,0.048-7.004-3.089-9c-6.711-4.271-5.193-4.544,25.279-4.544c27.955,0,28.554,0.043,27.943,1.968
				c-0.344,1.082-1.187,5.02-1.872,8.75c-1.059,5.753-1.581,6.831-3.443,7.103c-1.786,0.26-2.195-0.172-2.195-2.316
				c0-6.638-3.938-8.503-17.958-8.503h-9.659l-2.773,12.75c-1.525,7.012-2.991,13.537-3.259,14.5
				c-0.436,1.571,0.412,1.748,8.332,1.734c9.958-0.017,12.894-1.079,15.815-5.725c2.601-4.135,5.992-4.467,5.204-0.51
				c-0.301,1.512-1.345,6.912-2.318,12c-1.397,7.296-2.127,9.25-3.453,9.25c-1.061,0-1.898-1.087-2.27-2.946
				c-0.325-1.623-1.615-3.497-2.875-4.175c-2.4-1.291-18.126-1.866-19.29-0.706c-0.673,0.671-3.626,15.083-4.921,24.019
				c-0.623,4.296-0.464,4.835,1.883,6.372c2.061,1.351,4.273,1.594,11.303,1.24c10.435-0.524,14.143-2.19,18.435-8.278
				c1.856-2.635,3.613-4.152,4.438-3.836c1.945,0.746,1.716,2.534-1.233,9.59c-4.373,10.464-1.882,9.72-32.556,9.72
				C539.142,686.621,534.799,686.393,534.799,685.204L534.799,685.204z M1042.799,685.225c0-0.797,1.463-1.946,3.25-2.556
				c6.313-2.152,8.398-7.855,14.715-40.225c5.439-27.874,5.307-32.332-1.025-34.342c-1.127-0.358-1.875-1.175-1.662-1.815
				c0.279-0.841,8.109-1.239,28.127-1.432c27.268-0.262,27.729-0.232,27.111,1.718c-0.348,1.091-1.191,5.035-1.877,8.766
				c-1.059,5.753-1.582,6.831-3.443,7.103c-1.854,0.27-2.195-0.159-2.195-2.75c0-6.313-4.877-8.396-18.436-7.875l-7.938,0.305
				l-2.779,13c-1.529,7.15-2.795,13.563-2.814,14.25c-0.049,1.847,15.23,1.682,18.875-0.202c1.545-0.799,3.377-2.824,4.072-4.5
				c0.773-1.867,1.988-3.048,3.141-3.048c2.328,0,2.342-0.726-0.273,12.75c-1.832,9.447-2.477,11.25-4.016,11.25
				c-1.107,0-1.832-0.722-1.832-1.825c0-4.666-9.35-8.136-17.99-6.676l-3.82,0.646l-2.029,11.178
				c-3.576,19.712-3.426,21.497,2.006,23.747c5.98,2.478,2.529,3.425-13.498,3.706
				C1045.33,686.628,1042.799,686.438,1042.799,685.225L1042.799,685.225z M456.193,663.713c-4.474-2.031-8.395-8.31-8.395-13.439
				c0-7.943,7.021-15.048,14.847-15.021c9.358,0.033,15.143,5.75,15.149,14.971C477.804,661.94,467.062,668.648,456.193,663.713
				L456.193,663.713z M965.178,664.185c-1.717-0.747-4.402-3.036-5.967-5.088c-2.32-3.042-2.83-4.688-2.77-8.923
				c0.133-9.188,5.846-14.838,15.002-14.838c4.537,0,6.047,0.493,9.145,2.984c6.902,5.553,7.977,14.861,2.467,21.408
				C978.426,665.23,971.529,666.949,965.178,664.185L965.178,664.185z M367.317,628.642c-1.968-2.174-2.109-1.945,9.256-14.886
				l3.834-4.365l5.695,1.274c3.133,0.701,5.696,1.577,5.696,1.946c0,0.675-21.411,18.01-22.245,18.01
				C369.31,630.621,368.303,629.73,367.317,628.642L367.317,628.642z M876.07,628.641l-2.219-1.797l7.549-8.61
				c4.152-4.736,7.93-8.611,8.396-8.611c2.439,0,11.012,2.458,10.775,3.09c-0.248,0.665-18.879,15.646-21.279,17.111
				C878.74,630.161,877.289,629.629,876.07,628.641L876.07,628.641z M1540.834,628.649l-2.412-1.82l7.811-8.604
				c4.297-4.732,8.172-8.604,8.613-8.604c1.979,0,10.947,2.403,10.904,2.922c-0.045,0.541-18.928,15.777-21.381,17.252
				C1543.752,630.166,1542.162,629.65,1540.834,628.649z M113.694,623.518c-4.063-4.064-0.098-11.896,6.024-11.896
				c4.257,0,6.479,2.234,6.479,6.512C126.198,624.807,118.359,628.183,113.694,623.518z M788.549,624.229
				c-2.459-1.865-2.313-8.046,0.25-10.608c4.125-4.124,12-1.433,12,4.103C800.799,623.718,793.193,627.756,788.549,624.229z
				 M1452.693,623.518c-4.135-4.135-0.08-11.896,6.215-11.896c6.283,0,8.975,7.007,4.436,11.546
				C1460.264,626.248,1455.578,626.401,1452.693,623.518L1452.693,623.518z M576.595,594.933c-1.527-1.702-1.163-2.313,6.071-10.182
				l7.695-8.371l5.719,1.28c3.146,0.704,5.696,1.546,5.669,1.87c-0.082,0.951-20.163,16.334-21.925,16.795
				C578.942,596.556,577.489,595.93,576.595,594.933L576.595,594.933z"/>
		</g>
		<g>
			<rect id="rect6" x="28.754" y="18.562" fill="#FFFFFF" width="1538" height="520"/>
			<path id="path10" inkscape:connector-curvature="0" fill="#ED1C24" d="M908.854,538.563l2.332-6.033
				c3.955-10.899,8.055-19.217,13.973-28.343c6.268-9.667,20.066-23.907,25.807-26.633c7.053-3.35,15.824-4.528,26.668-3.586
				c9.313,0.81,37.926,5.488,49.473,8.09c8.787,1.979,21.654,2.169,27.709,0.407c11.666-3.394,18.576-9.953,21.855-20.746
				c2.518-8.28,2.492-15.805-0.064-20.824c-3.438-6.74-2.852-8.493,5.5-16.479c4.125-3.944,7.504-7.591,7.512-8.104
				c0.035-2.67-5.68-13.39-7.152-13.415c-0.9-0.015-2.682-0.872-3.957-1.906l-2.318-1.879l4.957-2.535
				c6.77-3.461,11.791-8.843,11.791-12.638c0-1.64-1.426-5.659-3.17-8.932c-3.344-6.281-4.24-12.283-2.355-15.805
				c1.244-2.327,3.391-3.306,13.934-6.353c8.857-2.561,12.061-5.156,13.324-10.799c1.08-4.827,0.549-7.93-2.35-13.729
				c-2.359-4.722-17.73-28.27-22.207-34.022c-6.018-7.73-13.346-21.086-15.514-28.27c-2.137-7.081-2.152-7.482-0.592-16.635
				c3.295-19.349,1.367-35.391-8.01-66.669c-6.971-23.246-8.842-28.89-11.025-33.239c-3.945-7.863-3.418-9.704,4.678-16.331
				c3.875-3.172,7.475-6.571,8-7.553c2.443-4.571-0.287-13.378-4.92-15.858c-2.939-1.574-4.576-0.494-7.561,4.994
				c-2.262,4.158-3.148,4.945-5.568,4.945c-3.939,0-4.631-1.652-2.115-5.058c2.934-3.97,2.701-4.607-1.906-5.226
				c-3.449-0.463-5.271-1.811-12.75-9.426c-10.025-10.209-16.76-14.914-30.186-21.087c-6.154-2.83-8.297-4.169-6.039-3.774
				c1.924,0.337,8.73,0.875,15.125,1.196c18.553,0.931,23.063-1.52,27.385-14.885c2.936-9.074,4.344-13.271-2.393-19.607
				L1012,18.562h554.754v520H908.854z"/>
			<path id="path12" inkscape:connector-curvature="0" fill="#0B4DA2" d="M435.786,538.563c-4.025-0.423-7.517-0.606-7.757-0.847
				c-0.424-0.424,4.123-3.348,24.949-16.039c6.68-4.071,9.428-6.253,8.5-6.749c-0.755-0.403-6.585-1.043-12.957-1.421
				c-9.468-0.562-12.211-0.4-15,0.882c-1.878,0.862-9.372,3.132-16.653,5.043c-18.06,4.739-24.137,7.993-29.936,16.027l-2.167,3.104
				H28.754v-520h706.339l-13.686,8.934c-7.535,3.741-16.291,8.936-19.458,11.545c-10.744,8.851-25.211,28.985-28.823,40.114
				c-1.328,4.091-2.533,5.624-6.607,8.405c-6.217,4.243-13.664,12.334-19.83,21.546c-8.373,12.508-24.332,40.698-27.468,48.518
				c-4.865,12.131-4.423,21.369,2.756,57.622c3.161,15.961,6.581,32.171,7.601,36.024c1.019,3.853,2.135,10.382,2.479,14.51
				c0.615,7.37,1.094,8.965,5.408,18.012c1.182,2.477,2.146,5.287,2.146,6.246c-0.002,0.958,0.896,2.305,1.997,2.992
				c1.141,0.713,2,2.333,2,3.773c0,1.733,2.277,5.023,7.28,10.516c11.444,12.566,19.72,24.347,19.72,28.073
				c0,3.06-4.489,3.851-11.721,2.064c-8.452-2.087-15.366-6.595-26.029-16.972c-4.538-4.416-8.25-7.384-8.25-6.597
				s3.111,4.893,6.913,9.123c7.563,8.414,8.749,10.709,7.113,13.767c-1.431,2.675-4.911,3.454-9.62,2.153
				c-5.434-1.501-8.618,0.591-7.722,5.075c0.55,2.751,0.399,3.075-1.155,2.478c-3.071-1.18-9.793-2.531-15.838-3.184
				c-5.553-0.6-5.964-0.843-9.325-5.525c-2.547-3.548-4.529-5.182-7.191-5.93c-9.923-2.786-34.604-7.082-51.175-8.906
				c-29.128-3.207-36.145-3.458-50.1-1.797c-10.716,1.275-13.63,2.023-19.499,5.008c-10.391,5.283-28.401,21.837-28.401,26.104
				c0,2.002,3.967,1.296,8.5-1.513c13.757-8.524,60.88-20.554,84-21.445c11.457-0.441,10.836,0.107-2.91,2.572
				c-3.801,0.681-12.801,2.987-20,5.124c-7.199,2.137-19.614,5.43-27.59,7.317c-7.975,1.888-16.975,4.321-20,5.407l-5.5,1.976
				l8.5,0.093c43.311,0.473,92.682,14.223,112.773,31.407c8.646,7.394,11.812,8.292,24.528,6.952
				c17.428-1.835,39.985-10.155,49.878-18.397c4.293-3.577,7.824-4.999,7.817-3.148c-0.011,3.269-5.697,20.839-8.155,25.199
				c-2.74,4.86-2.896,5.559-1.469,6.603c0.878,0.642,1.344,1.42,1.036,1.728s0.374,0.857,1.516,1.219
				c3.281,1.042,2.456,2.05-2.782,3.393c-5.106,1.31-9.143,3.603-9.143,5.193c0,0.519,0.701,0.944,1.559,0.944
				c2.568,0,0.652,1.796-2.703,2.533c-2.298,0.505-2.757,0.918-1.738,1.563c0.997,0.632,1.034,0.881,0.133,0.892
				c-0.688,0.008-1.25,1.031-1.25,2.273c0,1.546-0.945,2.676-3,3.586c-5.007,2.218-3.604,3.416,3.25,2.773
				c3.438-0.322,5.575-0.319,4.75,0.007c-0.825,0.326-6.45,2.873-12.5,5.659s-13.925,6.093-17.5,7.35
				c-4.047,1.422-6.632,2.92-6.849,3.968c-0.35,1.685,1.529,1.629,6.256-0.186c0.876-0.337,1.582-0.226,1.568,0.246
				s-10.429,6.486-23.145,13.366c-12.717,6.88-24.615,13.972-26.442,15.761s-4.165,3.252-5.194,3.252
				c-1.037,0-2.392,1.139-3.033,2.549c-1.942,4.266-1.541,4.785,3.089,3.989c6.879-1.182,10.031-1.116,10.488,0.217
				c0.247,0.721-0.401,1.251-1.532,1.251c-1.079,0-2.499,0.648-3.156,1.441c-0.658,0.793-2.395,1.581-3.859,1.751
				c-1.704,0.198-3.389,1.456-4.677,3.494c-1.107,1.752-2.913,3.417-4.014,3.699c-1.1,0.283,0.476,0.33,3.5,0.104
				c44.979-3.347,53.36-5.013,71.5-14.211c15.476-7.848,31.54-19.513,42.969-31.203c3.282-3.357,6.32-6.104,6.75-6.104
				c1.554,0,0.711,5.612-1.584,10.543c-3.971,8.534-12.303,16.394-29.428,27.764c-8.639,5.735-17.957,11.138-20.707,12.004
				c-8.592,2.707-22.463,5.592-37.004,7.694c-47.373,6.85-65.502,12.045-83.46,23.918c-3.006,1.987-6.161,3.495-7.011,3.351
				c-0.851-0.144-3.117,1.081-5.036,2.722c-5.397,4.615-1.486,3.835,9.707-1.938c11.472-5.916,16.849-6.848,7.804-1.353
				c-11.091,6.738-19.545,10.961-27.822,10.961H435.786z M376.94,480.557c1.798-0.752,7.746-4.084,13.218-7.405
				s11.974-6.957,14.448-8.08c2.476-1.123,9.45-4.276,15.5-7.007c12.681-5.723,31.29-11.123,32.36-9.39
				c0.376,0.608,3.148,1.279,6.162,1.489c4.217,0.295,4.96,0.566,3.228,1.178c-1.237,0.438-2.25,1.192-2.25,1.679
				c0,1.811,9.359,1.268,13.299-0.771c1.545-0.8,5.035-1.717,7.755-2.04c3.383-0.4,4.946-1.044,4.946-2.035
				c0-1.132,0.859-1.305,3.913-0.788c4.203,0.711,13.243-1,37.587-7.11c16.486-4.138,28.973-8.303,39.94-13.321l7.939-3.633
				l-7.939-5.088c-19.353-12.402-38.785-20.018-81.44-31.917c-7.425-2.071-13.949-4.213-14.5-4.76c-0.663-0.659-0.326-0.752,1-0.276
				c4.259,1.528,7.5,1.821,7.5,0.678c0-1.483-3.221-2.679-9.548-3.544c-5.787-0.792-9.522-2.519-5.502-2.544
				c6.223-0.039-4.475-3.984-16.45-6.068c-8.865-1.542-9.376-1.872-5.673-3.667c3.227-1.564,6.698-7.482,5.785-9.863
				c-0.775-2.021-1.742-1.813-6.538,1.41c-9.245,6.213-17.725,16.388-22.49,26.985c-2.719,6.045-1.777,6.6,12.215,7.198
				c11.457,0.49,11.639,0.534,8.701,2.112c-1.649,0.887-4.959,1.913-7.354,2.28c-8.135,1.248-12.654,5.11-8.621,7.369
				c1.198,0.67,0.723,1.236-2.219,2.639c-3.296,1.573-3.527,1.906-1.944,2.793c0.989,0.554,3.865,0.843,6.391,0.642
				c3.511-0.279,5.114,0.099,6.804,1.605l2.211,1.971l-4.437,2.815c-2.439,1.549-5.2,4.259-6.133,6.024
				c-0.934,1.765-4.284,5.963-7.447,9.329c-3.162,3.367-5.75,6.849-5.75,7.738c0,0.889-4.612,5.309-10.25,9.821
				c-15.16,12.136-21.749,18.806-21.749,22.018c0,1.699-0.857,3.229-2.36,4.216c-4.732,3.103-7.203,6.688-4.608,6.688
				C373.207,481.923,375.143,481.309,376.94,480.557L376.94,480.557z M493.919,468.864c3.747-0.501,8.086-1.664,9.643-2.584
				l2.829-1.672l-4.825-2.406l-4.826-2.406l-4.816,1.952c-2.648,1.074-6.317,2.521-8.151,3.215
				c-7.378,2.794-8.341,6.549-1.415,5.519C484.97,470.093,490.173,469.365,493.919,468.864L493.919,468.864z M324.607,423.36
				c22.284-23.316,38.011-37.148,57.972-50.99c6.783-4.704,11.562-7.424,11.798-6.715c0.647,1.945,3.554,1.373,8.284-1.633
				c5.437-3.453,8.156-6.948,14.941-19.201c7.04-12.712,9.7-15.889,19.862-23.72c4.753-3.663,11.753-9.131,15.554-12.152
				c5.479-4.354,6.795-5.042,6.344-3.317c-0.349,1.336-0.107,2.176,0.624,2.176c2.272,0,12.977-4.572,13.354-5.703
				c0.589-1.769-10.286-3.595-18.331-3.078c-6.176,0.396-8.363,1.114-16.027,5.253c-18.008,9.728-31.017,20.221-55.857,45.056
				c-17.876,17.872-31.958,29.855-39.076,33.251c-2.317,1.106-4.063,3.425-6.875,9.132c-5.466,11.093-15.223,27.012-24.486,39.947
				c-8.754,12.226-10.633,16.454-3.829,8.621C311.194,437.594,318.282,429.978,324.607,423.36L324.607,423.36z M547.606,532.835
				c26.764-5.566,29.719-5.981,48.5-6.804c21.09-0.925,23.777-1.473,36.465-7.439c4.064-1.911,5.658-2.259,6.224-1.357
				c0.983,1.57,7.864-2.18,21.312-11.614c5.5-3.858,13.277-8.79,17.283-10.959c6.037-3.267,7.884-3.829,10.787-3.284
				c3.101,0.582,4.019,0.204,7.978-3.283c10.974-9.666,20.344-14.135,29.702-14.164c2.782-0.009,3.75,0.403,3.75,1.597
				c0,1.018,0.55,1.396,1.5,1.031c2.787-1.07,1.524,0.154-5.645,5.473c-8.301,6.158-7.485,8.007,0.954,2.162
				c8.17-5.658,8.19-5.667,8.19-3.379c0,1.304-3.075,4.578-8.75,9.315c-12.911,10.778-22.054,19.692-35.972,35.073l-12.45,13.36
				H519.106L547.606,532.835z M547.856,329.132c0.963-0.251,2.537-0.251,3.5,0c0.963,0.252,0.175,0.458-1.75,0.458
				S546.895,329.384,547.856,329.132z"/>
			<path id="path14" inkscape:connector-curvature="0" fill="#7F7F7F" d="M1014.338,291.078c-4.367-0.661-2.113-2.284,3.17-2.284
				c5.303,0,8.098-2.036,8.098-5.9c0-1.816-0.396-2.115-2.09-1.577c-1.461,0.464-2.502,0.074-3.463-1.3
				c-0.898-1.283-3.068-2.188-6.262-2.612c-5.703-0.757-14.941-6.268-13.285-7.926c0.566-0.566,3.502-1.234,6.525-1.485
				c5.211-0.432,5.557-0.632,6.613-3.838c0.791-2.4,1.893-3.565,3.787-4.011c1.471-0.346,3.799-1.666,5.174-2.933
				c1.375-1.268,5.875-4.508,10-7.201c6.934-4.526,11.23-9.352,9.695-10.889c-1.619-1.619-16.635-3.381-23.695-2.781
				c-8.205,0.698-22.34,3.68-28.25,5.959c-6.068,2.34-4.295,0.302,4.043-4.645c11.254-6.678,32.92-12.905,44.9-12.905
				c4.648,0,20.203,3.676,22.057,5.212c3.629,3.01-0.33,13.574-7.063,18.845l-2.811,2.201l2.311,2.466l2.313,2.466l-2.361,1.916
				c-1.299,1.054-3.078,1.917-3.953,1.917s-3.043,1.408-4.816,3.128c-2.73,2.647-3.082,3.502-2.297,5.569
				c0.607,1.601,0.549,3.15-0.172,4.499c-0.674,1.259-0.844,4.123-0.436,7.384c0.83,6.657-0.369,9.042-5.227,10.392
				C1033.24,291.748,1020.049,291.942,1014.338,291.078L1014.338,291.078z"/>
		</g>
	</g>
</g>
</svg>
